<?xml version="1.0" encoding="utf-8"?>
<!-- Generator: Adobe Illustrator 16.0.0, SVG Export Plug-In . SVG Version: 6.00 Build 0)  -->
<!DOCTYPE svg PUBLIC "-//W3C//DTD SVG 1.1//EN" "http://www.w3.org/Graphics/SVG/1.1/DTD/svg11.dtd">
<svg version="1.1" id="Layer_1" xmlns="http://www.w3.org/2000/svg" xmlns:xlink="http://www.w3.org/1999/xlink" x="0px" y="0px"
	 width="3000px" height="2000px" viewBox="0 0 3000 2000" enable-background="new 0 0 3000 2000" xml:space="preserve">
<g>
	<path fill="none" d="M894.032,851c0-123.603,0-247.206,0-370.904c119.53,0,239.091,0,358.811,0c0,123.571,0,247.237,0,370.904
		C1133.316,851,1013.69,851,894.032,851z M981.545,805.102c0.758,0.255,1.337,0.666,1.63,0.516c2.46-1.253,4.816-2.717,7.3-3.918
		c16.222-7.847,28.023-20.682,35.896-36.185c8.062-15.874,13.479-33.081,20.262-49.619c3.082-7.515,5.994-15.232,10.188-22.124
		c5.457-8.964,12.113-17.199,18.892-26.636c4.384,10.728,8.017,20.846,12.586,30.522c7.43,15.734,8.77,32.434,7.799,49.242
		c-1.146,19.851-10.023,37.038-21.721,52.728c-4.502,6.04-9.819,11.472-14.764,17.181c0.136,0.472,0.271,0.945,0.408,1.417
		c1.615-0.29,3.326-0.333,4.825-0.92c2.926-1.146,5.611-3.188,8.613-3.812c10.46-2.179,19.637-7.054,28.14-13.155
		c3.948-2.833,6.914-6.995,10.609-10.231c7.14-6.253,12.465-13.478,15.596-22.643c4.538-13.282,5.102-26.715,2.945-40.313
		c-1.449-9.137-3.75-18.14-5.535-26.567c10.378,5.267,21.337,10.499,31.95,16.357c5.191,2.865,10.348,6.302,14.449,10.521
		c8.099,8.335,15.743,17.161,23.02,26.229c5.682,7.08,10.922,14.594,15.594,22.375c2.948,4.911,4.401,10.705,6.729,16.013
		c0.504,1.151,1.882,1.919,2.858,2.864c0.562-1.155,1.424-2.261,1.621-3.474c0.369-2.282,0.103-4.674,0.539-6.936
		c2.911-15.113,0.322-29.329-6.291-43.093c-8.113-16.887-18.556-31.845-33.979-42.881c-6.737-4.821-13.369-9.83-20.398-14.188
		c-8.7-5.395-18.167-9.621-26.551-15.438c-7.379-5.119-10.863-12.782-11.048-22.298c-0.312-16.051,2.911-31.394,7.741-46.458
		c3.022-9.424,5.083-19.16,1.778-28.364c-3.646-10.154-1.137-18.436,3.768-26.877c3.576-6.154,7.458-12.159,10.587-18.534
		c1.99-4.054,0.171-7.187-4.154-9.126c-4.19-1.878-6.07,0.224-8.015,3.358c-4.197,6.765-8.407,13.532-12.922,20.084
		c-3.832,5.562-8.212,10.203-15.969,10.381c-13.265,0.306-24.972,4.938-32.449,16.336c-5.617,8.563-10.372,17.793-14.612,27.134
		c-5.438,11.979-13.563,21.977-23.581,29.765c-11.901,9.251-25.388,16.071-39.87,21.246c-16.112,5.757-30.215,3.657-43.767-5.922
		c-12.03-8.504-21.717-19.334-30.611-30.946c-0.951-1.242-1.99-2.418-2.927-3.55c-5.198,3.255-4.327,6.823-2.013,10.911
		c8.172,14.44,18.666,26.973,30.609,38.415c20.923,20.046,45.094,25.158,72.215,15.506c8.445-3.006,17.003-6.356,22.878-13.873
		c-5.096,7.625-10.206,15.068-15.311,22.514c-1.034,1.508-1.848,3.227-3.108,4.511c-6.734,6.861-10.318,15.462-13.05,24.36
		c-3.113,10.137-5.21,20.588-8.369,30.709c-2.327,7.458-5.06,14.674-4.835,22.707c0.081,2.889-0.991,5.922-2.03,8.706
		c-2.554,6.842-5.399,13.574-8.116,20.354C985.571,794.978,983.585,799.982,981.545,805.102z"/>
	<path fill-rule="evenodd" clip-rule="evenodd" d="M981.545,805.102c2.041-5.12,4.026-10.124,6.028-15.121
		c2.717-6.78,5.562-13.513,8.116-20.354c1.039-2.784,2.111-5.817,2.03-8.706c-0.224-8.032,2.509-15.249,4.835-22.707
		c3.158-10.122,5.256-20.572,8.369-30.709c2.732-8.897,6.316-17.499,13.05-24.36c1.26-1.284,2.074-3.002,3.108-4.511
		c5.105-7.446,10.215-14.889,15.311-22.514c-5.875,7.517-14.433,10.867-22.878,13.873c-27.121,9.652-51.292,4.54-72.215-15.506
		c-11.943-11.442-22.437-23.975-30.609-38.415c-2.314-4.088-3.185-7.655,2.013-10.911c0.938,1.132,1.976,2.308,2.927,3.55
		c8.894,11.612,18.581,22.442,30.611,30.946c13.552,9.58,27.655,11.68,43.767,5.922c14.482-5.175,27.969-11.995,39.87-21.246
		c10.018-7.788,18.144-17.785,23.581-29.765c4.24-9.341,8.995-18.57,14.612-27.134c7.477-11.397,19.184-16.03,32.449-16.336
		c7.757-0.178,12.137-4.819,15.969-10.381c4.515-6.552,8.725-13.32,12.922-20.084c1.944-3.134,3.825-5.236,8.015-3.358
		c4.325,1.939,6.144,5.072,4.154,9.126c-3.129,6.375-7.011,12.38-10.587,18.534c-4.905,8.441-7.415,16.723-3.768,26.877
		c3.305,9.205,1.244,18.94-1.778,28.364c-4.83,15.064-8.054,30.408-7.741,46.458c0.185,9.516,3.669,17.179,11.048,22.298
		c8.383,5.816,17.851,10.043,26.551,15.438c7.03,4.358,13.662,9.367,20.398,14.188c15.423,11.037,25.866,25.995,33.979,42.881
		c6.612,13.764,9.202,27.98,6.291,43.093c-0.436,2.262-0.169,4.654-0.539,6.936c-0.196,1.213-1.059,2.319-1.621,3.474
		c-0.975-0.945-2.353-1.713-2.857-2.864c-2.328-5.308-3.78-11.102-6.729-16.013c-4.671-7.781-9.912-15.295-15.594-22.375
		c-7.276-9.069-14.92-17.895-23.02-26.229c-4.101-4.22-9.258-7.657-14.449-10.521c-10.613-5.858-21.572-11.09-31.95-16.357
		c1.785,8.428,4.086,17.43,5.535,26.567c2.157,13.598,1.593,27.031-2.945,40.313c-3.131,9.165-8.457,16.39-15.596,22.643
		c-3.695,3.236-6.661,7.398-10.609,10.231c-8.503,6.102-17.68,10.977-28.14,13.155c-3.002,0.625-5.687,2.667-8.613,3.812
		c-1.499,0.587-3.21,0.631-4.825,0.92c-0.136-0.473-0.272-0.945-0.408-1.417c4.945-5.709,10.262-11.142,14.764-17.181
		c11.697-15.69,20.575-32.877,21.721-52.728c0.97-16.808-0.369-33.508-7.799-49.242c-4.57-9.676-8.203-19.794-12.586-30.522
		c-6.778,9.438-13.435,17.672-18.892,26.636c-4.194,6.892-7.106,14.609-10.188,22.124c-6.783,16.538-12.201,33.745-20.262,49.619
		c-7.873,15.503-19.674,28.338-35.896,36.185c-2.484,1.201-4.84,2.665-7.3,3.918C982.882,805.767,982.303,805.357,981.545,805.102z
		 M1217.235,781.008c2.251-12.178,2.441-13.993-2.901-29.779c-8.864-26.193-26.683-44.375-48.808-59.095
		c-10.605-7.057-22.33-12.435-32.912-19.522c-8.585-5.75-12.339-14.603-12.848-25.196c-0.873-18.184,5.039-34.961,9.472-52.102
		c3.03-11.715,3.39-23.11-6.361-32.315c1.969-2.802,4.136-5.267,5.604-8.094c3.729-7.18,7.237-14.479,10.59-21.842
		c0.542-1.19,0.393-3.663-0.414-4.295c-1.597-1.251-3.644-2.01-5.167,1.009c-2.542,5.038-5.52,9.866-8.464,14.69
		c-4.508,7.388-11.096,10.5-19.823,10.864c-6.143,0.256-12.806,1.268-18.178,4.013c-10.883,5.562-16.336,16.278-20.678,27.082
		c-6.624,16.483-16.956,30.156-30.463,41.272c-6.734,5.542-14.376,10.425-22.351,13.905c-10.591,4.622-21.669,9.216-32.969,10.858
		c-15.629,2.271-28.705-5.483-40.042-15.91c-4.617-4.247-9.23-8.496-13.846-12.744c8.083,10.499,16.761,20.478,26.091,29.804
		c6.974,6.971,15.885,11.073,25.184,14.373c11.456,4.065,22.836,2.123,33.938-0.656c7.742-1.938,15.771-4.661,22.28-9.083
		c7.412-5.035,13.271-12.353,19.815-18.667c1.129-1.089,2.309-2.126,3.798-3.491c1.863,5.523-0.768,9.234-3.402,12.734
		c-6.978,9.271-14.233,18.332-21.216,27.598c-8.009,10.629-15.487,21.46-19.16,34.643c-4.579,16.433-10.385,32.536-11.587,49.751
		c-0.137,1.965-0.567,3.983-1.27,5.821c-3.203,8.384-6.588,16.699-9.813,25.075c-0.558,1.448-0.658,3.073-0.969,4.617
		c0.481,0.292,0.962,0.584,1.443,0.876c6.045-4.848,12.38-9.381,18.067-14.618c8.699-8.01,14.292-18.271,18.703-29.076
		c7.002-17.153,13.899-34.36,20.326-51.735c4.359-11.785,11.986-21.297,19.579-30.912c2.464-3.12,5.268-5.971,7.917-8.945
		c0.69,0.052,1.381,0.104,2.072,0.157c4.808,12.104,9.659,24.191,14.402,36.321c1.868,4.776,4.279,9.517,5.094,14.495
		c3.325,20.314,5.49,40.739-3.653,60.264c-3.852,8.224-8.288,16.207-12.946,24.008c-2.533,4.241-6.086,7.873-9.925,12.721
		c2.115-0.245,2.768-0.224,3.359-0.402c14.087-4.263,26.076-11.661,36.334-22.412c14.576-15.275,17.81-33.683,15.97-53.523
		c-1.32-14.242-3.983-28.277-10.499-41.3c-0.619-1.237,0.294-3.239,0.496-4.886c1.324,0.743,2.969,1.202,3.921,2.275
		c6.863,7.74,15.444,13.059,24.606,17.473c10.471,5.045,21.434,9.552,29.637,17.927c9.052,9.241,17.244,19.352,25.474,29.36
		c4.581,5.57,8.658,11.584,12.601,17.635C1215.102,774.72,1215.966,777.996,1217.235,781.008z M1141.63,527.965
		c1.009-0.328,2.018-0.656,3.027-0.984c-0.542-2.166-1.085-4.331-1.627-6.496c-1.302,0.649-3.786,1.562-3.71,1.905
		C1139.749,524.325,1140.794,526.122,1141.63,527.965z"/>
	<path fill-rule="evenodd" clip-rule="evenodd" fill="#F7CF0E" d="M1217.235,781.008c-1.269-3.012-2.134-6.288-3.89-8.983
		c-3.943-6.05-8.02-12.065-12.601-17.635c-8.23-10.008-16.422-20.119-25.474-29.36c-8.204-8.375-19.166-12.882-29.637-17.927
		c-9.162-4.414-17.743-9.732-24.606-17.473c-0.952-1.073-2.597-1.532-3.921-2.275c-0.202,1.647-1.114,3.649-0.496,4.886
		c6.515,13.023,9.178,27.058,10.499,41.3c1.84,19.841-1.394,38.249-15.97,53.523c-10.259,10.751-22.247,18.149-36.334,22.412
		c-0.592,0.179-1.244,0.158-3.359,0.402c3.838-4.848,7.392-8.479,9.925-12.721c4.658-7.801,9.094-15.784,12.946-24.008
		c9.144-19.525,6.978-39.95,3.653-60.264c-0.814-4.978-3.226-9.719-5.094-14.495c-4.743-12.129-9.594-24.217-14.402-36.321
		c-0.691-0.052-1.381-0.104-2.072-0.157c-2.649,2.974-5.453,5.825-7.917,8.945c-7.593,9.614-15.219,19.127-19.579,30.912
		c-6.427,17.375-13.324,34.582-20.326,51.735c-4.411,10.805-10.004,21.066-18.703,29.076c-5.687,5.237-12.022,9.77-18.067,14.618
		c-0.481-0.292-0.962-0.584-1.443-0.876c0.312-1.543,0.412-3.168,0.969-4.617c3.225-8.376,6.61-16.69,9.813-25.075
		c0.702-1.838,1.132-3.856,1.27-5.821c1.202-17.215,7.008-33.318,11.587-49.751c3.673-13.182,11.15-24.014,19.16-34.643
		c6.983-9.267,14.238-18.328,21.216-27.598c2.634-3.5,5.265-7.211,3.402-12.734c-1.489,1.365-2.669,2.402-3.798,3.491
		c-6.544,6.315-12.404,13.632-19.815,18.667c-6.509,4.422-14.538,7.145-22.28,9.083c-11.102,2.779-22.482,4.721-33.938,0.656
		c-9.298-3.3-18.209-7.402-25.184-14.373c-9.33-9.326-18.008-19.305-26.091-29.804c4.615,4.248,9.229,8.497,13.846,12.744
		c11.336,10.427,24.413,18.181,40.042,15.91c11.299-1.642,22.378-6.236,32.969-10.858c7.974-3.479,15.617-8.363,22.351-13.905
		c13.507-11.116,23.839-24.789,30.463-41.272c4.342-10.804,9.794-21.52,20.678-27.082c5.373-2.745,12.035-3.757,18.178-4.013
		c8.727-0.364,15.314-3.476,19.823-10.864c2.944-4.824,5.921-9.652,8.464-14.69c1.523-3.019,3.57-2.26,5.167-1.009
		c0.807,0.632,0.956,3.105,0.414,4.295c-3.353,7.363-6.862,14.662-10.59,21.842c-1.468,2.828-3.635,5.292-5.604,8.094
		c9.75,9.205,9.391,20.6,6.361,32.315c-4.433,17.141-10.345,33.917-9.472,52.102c0.509,10.593,4.263,19.446,12.848,25.196
		c10.583,7.087,22.307,12.466,32.912,19.522c22.125,14.72,39.943,32.902,48.808,59.095
		C1219.677,767.016,1219.487,768.83,1217.235,781.008z M1069.717,647.212c-0.332-0.318-0.665-0.636-0.997-0.954
		c-7.267,3.606-11.312,10.46-15.406,16.841c-5.539,8.632-9.851,18.04-14.979,26.948c-10.768,18.708-18.689,38.49-23.451,59.562
		c-1.119,4.952-2.932,9.746-4.358,14.631c-0.097,0.331,0.372,0.826,0.577,1.245c0.493,0.18,0.986,0.36,1.479,0.54
		c1.5-4.088,3.705-8.064,4.373-12.284c2.47-15.616,8.7-29.934,14.83-44.251c3.508-8.193,8.15-15.898,12.213-23.858
		c5.437-10.65,10.273-21.655,18.627-30.529C1065.049,652.529,1067.356,649.846,1069.717,647.212z M1098.882,781.582
		c0.456,0.265,0.913,0.531,1.369,0.796c1.53-2.444,2.998-4.929,4.602-7.323c7.038-10.504,12.534-21.524,10.409-34.696
		c-1.528-9.466-3.225-18.922-5.337-28.272c-3.443-15.237-7.288-30.384-10.963-45.569c-0.523,0.066-1.046,0.132-1.569,0.199
		c0.217,2.516,0.097,5.116,0.706,7.533c4.327,17.173,9.537,34.165,12.93,51.515c1.768,9.037,1.919,18.998,0.047,27.967
		c-1.819,8.714-7.159,16.693-10.948,24.997C1099.696,779.673,1099.296,780.631,1098.882,781.582z M1191.743,727.991
		c0.213-0.015,0.427-0.029,0.641-0.043c-0.971-1.579-1.626-3.52-2.961-4.679c-9.371-8.141-18.553-16.557-28.437-24.036
		c-10.947-8.285-22.665-15.544-33.858-23.515c-3.486-2.482-6.359-5.826-9.513-8.775c-0.23,1.81,0.107,3.337,1.054,4.184
		c5.063,4.528,9.986,9.296,15.502,13.216c11.082,7.875,22.819,14.85,33.706,22.973
		C1176.29,713.593,1183.82,721.056,1191.743,727.991z M962.526,657.013c2.839,0,4.959-0.053,7.077,0.009
		c8.24,0.245,16.629,1.647,24.688,0.568c18.161-2.432,33.155-12.301,47.463-23.047c2.231-1.676,3.395-4.773,5.052-7.212
		c-24.899,21.787-51.277,36.403-86.591,25.774C961.722,655.654,962.362,656.736,962.526,657.013z M1112.28,605.212
		c-13.482,9.453-18.891-0.844-24.922-9.672c-2.589,7.182,2.275,14.115,10.634,16.657
		C1104.81,614.27,1110.771,611.928,1112.28,605.212z M1124.5,586.545c-1.333-1.367-2.82-4.207-4.88-4.712
		c-3.551-0.873-7.83,3.223-7.812,6.412c0.017,3.356,3.63,6.914,7.237,6.789C1123.744,594.87,1123.305,590.906,1124.5,586.545z
		 M1083.77,578.421c1.114,0.868,2.989,3.352,5.318,3.897c3.314,0.776,7.834-3.358,7.712-6.042c-0.16-3.501-3.419-6.643-6.773-6.529
		C1086.075,569.881,1083.653,572.478,1083.77,578.421z"/>
	<path fill-rule="evenodd" clip-rule="evenodd" fill="#431116" d="M1141.63,527.965c-0.835-1.844-1.881-3.641-2.311-5.575
		c-0.076-0.343,2.408-1.256,3.71-1.905c0.542,2.166,1.085,4.331,1.627,6.496C1143.648,527.31,1142.639,527.638,1141.63,527.965z"/>
	<path fill-rule="evenodd" clip-rule="evenodd" d="M1069.717,647.212c-2.36,2.633-4.668,5.316-7.091,7.891
		c-8.354,8.875-13.19,19.879-18.627,30.529c-4.063,7.96-8.705,15.665-12.213,23.858c-6.13,14.317-12.36,28.636-14.83,44.251
		c-0.667,4.22-2.873,8.196-4.373,12.284c-0.493-0.18-0.986-0.36-1.479-0.54c-0.206-0.419-0.674-0.915-0.577-1.245
		c1.427-4.886,3.24-9.68,4.358-14.631c4.762-21.072,12.684-40.854,23.451-59.562c5.127-8.909,9.44-18.316,14.979-26.948
		c4.094-6.38,8.139-13.234,15.406-16.841C1069.052,646.576,1069.385,646.894,1069.717,647.212z"/>
	<path fill-rule="evenodd" clip-rule="evenodd" d="M1098.882,781.582c0.414-0.951,0.813-1.909,1.244-2.853
		c3.789-8.304,9.129-16.283,10.948-24.997c1.873-8.969,1.721-18.93-0.047-27.967c-3.393-17.35-8.603-34.342-12.93-51.515
		c-0.609-2.417-0.489-5.018-0.706-7.533c0.523-0.066,1.046-0.132,1.569-0.199c3.675,15.185,7.52,30.332,10.963,45.569
		c2.113,9.35,3.81,18.806,5.337,28.272c2.125,13.171-3.371,24.192-10.409,34.696c-1.604,2.394-3.072,4.879-4.602,7.323
		C1099.795,782.113,1099.338,781.847,1098.882,781.582z"/>
	<path fill-rule="evenodd" clip-rule="evenodd" d="M1191.743,727.991c-7.923-6.936-15.453-14.398-23.867-20.676
		c-10.887-8.123-22.624-15.097-33.706-22.973c-5.516-3.92-10.439-8.688-15.502-13.216c-0.947-0.847-1.285-2.374-1.054-4.184
		c3.154,2.949,6.026,6.293,9.513,8.775c11.193,7.971,22.911,15.23,33.858,23.515c9.884,7.479,19.066,15.895,28.437,24.036
		c1.335,1.159,1.991,3.1,2.961,4.679C1192.17,727.962,1191.957,727.977,1191.743,727.991z"/>
	<path fill-rule="evenodd" clip-rule="evenodd" d="M962.526,657.013c-0.164-0.277-0.804-1.358-2.312-3.908
		c35.314,10.629,61.692-3.987,86.591-25.774c-1.657,2.439-2.821,5.537-5.052,7.212c-14.309,10.746-29.302,20.615-47.463,23.047
		c-8.059,1.079-16.448-0.323-24.688-0.568C967.485,656.959,965.365,657.013,962.526,657.013z"/>
	<path fill-rule="evenodd" clip-rule="evenodd" d="M1112.28,605.212c-1.509,6.716-7.47,9.058-14.289,6.985
		c-8.358-2.542-13.223-9.475-10.634-16.657C1093.389,604.368,1098.798,614.665,1112.28,605.212z"/>
	<path fill-rule="evenodd" clip-rule="evenodd" d="M1124.5,586.545c-1.195,4.361-0.756,8.325-5.456,8.488
		c-3.607,0.125-7.22-3.433-7.237-6.789c-0.017-3.189,4.261-7.285,7.812-6.412C1121.68,582.338,1123.167,585.178,1124.5,586.545z"/>
	<path fill-rule="evenodd" clip-rule="evenodd" d="M1083.77,578.421c-0.116-5.943,2.305-8.54,6.258-8.675
		c3.354-0.114,6.613,3.028,6.773,6.529c0.122,2.684-4.398,6.818-7.712,6.042C1086.759,581.772,1084.884,579.289,1083.77,578.421z"/>
</g>
</svg>
