<?xml version="1.0" encoding="utf-8"?>
<!-- Generator: Adobe Illustrator 16.0.0, SVG Export Plug-In . SVG Version: 6.00 Build 0)  -->
<!DOCTYPE svg PUBLIC "-//W3C//DTD SVG 1.1//EN" "http://www.w3.org/Graphics/SVG/1.1/DTD/svg11.dtd">
<svg version="1.1" xmlns="http://www.w3.org/2000/svg" xmlns:xlink="http://www.w3.org/1999/xlink" x="0px" y="0px" width="3000px"
	 height="2000px" viewBox="0 0 3000 2000" enable-background="new 0 0 3000 2000" xml:space="preserve">
<g id="Layer_1">
	<g>
		<path fill="none" d="M596.389,369.004c257.958,0,515.915,0,774.007,0c0,315.245,0,630.533,0,946.066
			c-257.912,0-515.959,0-774.007,0C596.389,999.799,596.389,684.422,596.389,369.004z M981.357,878.048
			c5.627-9.563,1.109-17.936-1.981-26.247c-10.909-29.339-21.911-58.646-33.373-87.771c-1.41-3.582-5.362-7.646-8.91-8.596
			c-7.225-1.933-15.014-2.804-22.505-2.501c-25.621,1.035-51.202,3.029-76.819,4.154c-22.059,0.969-44.184,0.656-66.213,1.987
			c-26.13,1.58-52.173,4.548-78.287,6.448c-13.836,1.007-24.226,3.054-30.191,19.457c-10.862,29.866-25.375,58.415-38.622,87.395
			c-3.809,8.334-4.963,16.328-0.226,25.365c7.793-0.508,15.702-0.682,23.516-1.639c6.886-0.842,9.873,1.5,8.992,8.463
			c-0.946,7.495-2.468,14.977-2.658,22.492c-0.301,11.961,0.477,23.945,0.469,35.918c-0.015,23.145-0.42,46.289-0.368,69.433
			c0.066,29.938,1.722,59.934,0.341,89.795c-1.935,41.882-5.904,83.675-9.319,125.48c-0.688,8.417-2.783,16.721-3.87,23.001
			c4.458,1.45,7.405,2.501,10.406,3.364c4.861,1.396,9.793,3.927,14.634,3.792c30.827-0.861,61.631-2.508,92.455-3.53
			c28.319-0.939,56.652-1.521,84.981-2.072c24.193-0.469,48.391-0.821,72.588-0.876c5.32-0.011,8.994-0.924,10.15-6.714
			c4.042-20.242,10.128-40.305,11.825-60.737c2.789-33.582,2.693-67.401,3.931-101.116c0.784-21.372,1.737-42.738,2.69-64.104
			c1.006-22.539,2.428-45.065,3.074-67.615c0.715-25.008,0.721-50.036,1.12-75.054c0.087-5.502,2.601-8.277,8.649-8.273
			c8.957,0.006,17.945-0.502,26.852-1.441c2.938-0.31,5.663-2.633,8.485-4.036c-2.808-0.986-5.616-1.968-8.421-2.958
			C983.999,879.042,983.252,878.752,981.357,878.048z M1181.95,506.593c0.814-0.417,1.628-0.833,2.441-1.25
			c-0.219-1.218-0.209-2.537-0.692-3.639c-3.337-7.593-6.551-15.253-10.256-22.667c-3.038-6.081-5.829-12.623-10.251-17.61
			c-12.695-14.318-30.167-19.726-47.942-16.596c-18.447,3.248-36.288-1.231-54.396,0.333c-27.144,2.345-53.44,6.899-76.026,23.708
			c-6.771,5.038-13.472,10.233-20.63,14.67c-14.498,8.987-28.368,19.1-47.536,15.296c-11.604-2.303-24.245-3.966-35.649-1.819
			c-31.744,5.975-63.727,12.375-89.016,35.258c-15.147,13.707-25.038,28.877-19.677,50.818c1.235,5.053-0.388,12.845-3.77,16.625
			c-13.743,15.365-15.736,32.098-8.876,50.618c2.487,6.713,6.94,11.751,14.647,12.482c17.426,1.651,34.369,8.6,52.401,3.885
			c11.242-2.94,23.489-3.026,34.036-7.403c15.788-6.552,30.246-16.231,45.7-23.685c14.787-7.132,29.299-16.36,47.179-11.665
			c4.198,1.103,8.616,1.337,12.878,2.229c13.195,2.76,26.74,6.104,36.139,15.987c11.546,12.139,25.173,15.703,41.002,16.525
			c9.32,0.484,18.696,3.045,27.693,5.818c12.168,3.75,23.855,9.307,37.013,4.15c6.817-2.672,13.953-4.542,20.73-7.302
			c15.979-6.506,32.231-8.125,48.434-1.833c8.714,3.384,16.469,9.238,25.18,12.632c11.558,4.501,23.513,8.115,35.505,11.336
			c17.139,4.604,25.46,1.275,35.832-13.632c7.16-10.292,13.51-21.172,21.035-31.179c11.641-15.476,10.68-31.803,3.24-47.922
			c-8.666-18.776-23.982-32.182-40.609-43.766c-7.207-5.021-15.414-10.832-23.647-11.694c-18.019-1.889-31.143-10.146-41.78-23.879
			c-1.276-1.646-2.832-3.074-4.258-4.603c-0.658,0.136-1.316,0.273-1.973,0.409c0.105,2.184-0.193,4.489,0.419,6.521
			c0.758,2.515,2.273,4.803,4.519,9.313c-8.447-5.196-15.439-8.185-20.736-13.027c-10.952-10.014-22.173-20.142-30.979-31.94
			c-5.169-6.925-9.673-13.302-17.628-16.951c-5.032-2.308-9.787-5.218-14.73-7.893c6.787-4.763,31.551-2.442,39.958,2.291
			c14.239,8.016,19.125,22.461,26.329,35.417C1176.106,496.177,1179.034,501.381,1181.95,506.593z M902.587,678.562
			c-1.874,3.13-3.558,4.773-3.847,6.632c-1.065,6.841-1.862,13.739-2.362,20.645c-0.248,3.433-0.543,7.37,0.86,10.268
			c1.322,2.729,4.767,5.95,7.424,6.086c2.675,0.137,7.27-2.773,7.951-5.209c1.458-5.21,2.363-11.399,0.878-16.412
			C911.374,693.429,906.907,686.979,902.587,678.562z M1031.711,914.561c-1.136,3.399-2.214,4.887-1.853,5.814
			c3.161,8.116-1.609,13.98-5.352,20.191c-0.975,1.619-2.541,3.493-2.356,5.079c0.501,4.325,0.986,9.035,3.113,12.623
			c1.052,1.774,7.357,2.899,8.414,1.728c2.83-3.136,5.895-7.788,5.646-11.628c-0.602-9.308-2.981-18.508-4.779-27.725
			C1034.257,919.175,1033.271,917.844,1031.711,914.561z M1172.333,744.803c-0.146,0.082-1.458,0.357-1.855,1.113
			c-3.923,7.486-8.55,14.777-11.111,22.724c-1.114,3.455,1.437,8.71,3.643,12.347c1.047,1.725,6.533,3.024,7.667,1.977
			c2.697-2.486,4.553-6.314,5.669-9.934c0.729-2.368-0.347-5.331-0.759-8.004C1174.59,758.542,1173.508,752.07,1172.333,744.803z"/>
		<path fill-rule="evenodd" clip-rule="evenodd" d="M981.357,878.048c1.895,0.705,2.642,0.995,3.396,1.261
			c2.805,0.99,5.614,1.972,8.421,2.958c-2.822,1.402-5.547,3.726-8.485,4.036c-8.907,0.939-17.896,1.448-26.852,1.441
			c-6.048-0.004-8.562,2.771-8.649,8.273c-0.398,25.019-0.404,50.046-1.12,75.054c-0.646,22.55-2.068,45.076-3.074,67.615
			c-0.954,21.366-1.907,42.732-2.69,64.104c-1.237,33.715-1.142,67.534-3.931,101.116c-1.696,20.433-7.783,40.495-11.825,60.737
			c-1.156,5.79-4.831,6.703-10.15,6.714c-24.197,0.055-48.395,0.407-72.588,0.876c-28.33,0.551-56.662,1.133-84.981,2.072
			c-30.824,1.022-61.627,2.669-92.455,3.53c-4.841,0.135-9.773-2.396-14.634-3.792c-3.001-0.863-5.948-1.914-10.406-3.364
			c1.087-6.28,3.182-14.584,3.87-23.001c3.415-41.806,7.385-83.599,9.319-125.48c1.381-29.861-0.274-59.857-0.341-89.795
			c-0.052-23.144,0.354-46.288,0.368-69.433c0.008-11.973-0.771-23.957-0.469-35.918c0.19-7.515,1.711-14.997,2.658-22.492
			c0.88-6.964-2.106-9.306-8.992-8.463c-7.814,0.957-15.723,1.13-23.516,1.639c-4.737-9.038-3.583-17.031,0.226-25.365
			c13.246-28.98,27.76-57.529,38.622-87.395c5.965-16.403,16.354-18.45,30.191-19.457c26.114-1.899,52.157-4.868,78.287-6.448
			c22.029-1.331,44.154-1.018,66.213-1.987c25.617-1.125,51.199-3.119,76.819-4.154c7.491-0.303,15.281,0.568,22.505,2.501
			c3.548,0.95,7.5,5.014,8.91,8.596c11.461,29.125,22.463,58.433,33.373,87.771C982.467,860.112,986.984,868.484,981.357,878.048z
			 M904.226,886.864c0.279-0.759,0.559-1.519,0.838-2.278c-0.933-0.664-1.976-2.017-2.78-1.888
			c-10.286,1.65-20.357-4.324-31.499,3.401c-7.673,5.321-20.461,3.649-31.014,4.354c-23.897,1.592-47.81,3.193-71.743,3.924
			c-33.516,1.025-67.055,1.338-100.587,1.74c-4.213,0.051-5.816,1.031-5.773,5.494c0.435,45.805,0.851,91.611,0.954,137.418
			c0.078,34.638,0.618,69.313-0.787,103.902c-1.071,26.362-4.916,52.608-7.437,78.915c-1.271,13.273-2.327,26.568-3.517,39.851
			c-0.563,6.279,2.2,10.641,8.475,10.395c14.984-0.59,29.947-1.883,44.885-3.26c1.866-0.172,4.481-2.218,5.122-3.985
			c3.054-8.437,6.292-16.922,8.102-25.673c5.651-27.306,12.644-54.133,25.22-79.187c6.362-12.676,14.34-24.203,28.931-28.132
			c13.782-3.711,27.858-4.875,42.107-1.787c23.017,4.985,38.875,18.127,45.253,40.925c7.822,27.959,11.114,56.683,11.71,85.689
			c0.095,4.636,0.596,8.088,6.485,7.899c12.501-0.399,25.031-0.239,37.497-1.087c2.573-0.176,6.696-3.451,7.088-5.801
			c3.897-23.347,7.997-46.716,10.335-70.248c1.858-18.686,1.176-37.614,1.914-56.424c1.455-37.057,3.28-74.099,4.637-111.159
			c1.276-34.875,2.198-69.765,3.158-104.651c0.244-8.826,0.037-17.664,0.037-25.911
			C927.979,888.403,916.103,887.634,904.226,886.864z M626.202,889.774c18.384-1.812,33.782-3.362,49.187-4.844
			c51.385-4.939,102.836-7.906,154.511-6.563c31.903,0.829,63.832,0.684,95.75,0.93c13.613,0.105,27.228,0.204,40.84,0.086
			c7.207-0.062,11.396-3.222,9.833-11.209c-1.096-5.601-1.464-11.463-3.382-16.766c-9.255-25.586-18.682-51.116-28.542-76.475
			c-5.737-14.755-10.109-16.806-26.509-15.75c-17.96,1.156-35.932,2.184-53.91,3.035c-39.245,1.859-78.513,3.288-117.741,5.454
			c-21.215,1.172-42.367,3.495-63.546,5.312c-5.787,0.496-8.72,3.943-11.051,9.146c-11.79,26.317-24.188,52.364-35.85,78.737
			C632.015,869.41,629.83,878.656,626.202,889.774z M864.197,1264.08c-0.924-9.851-1.473-18.808-2.657-27.679
			c-2.701-20.23-5.031-40.553-8.932-60.562c-1.61-8.259-5.837-16.515-10.667-23.541c-12.093-17.597-30.925-20.682-50.227-19.162
			c-13.755,1.084-26.607,4.726-35.358,18.396c-15.804,24.686-22.694,52.145-29.007,80.051c-2.742,12.125-6.06,24.118-9.342,37.061
			C766.749,1267.123,814.745,1265.623,864.197,1264.08z M855.383,884.213c-56.062-3.405-111.986-1.245-167.848,3.354
			c0.034,1.348,0.067,2.697,0.101,4.045C743.528,888.216,799.564,890.576,855.383,884.213z"/>
		<path fill-rule="evenodd" clip-rule="evenodd" d="M1181.95,506.593c-2.916-5.212-5.844-10.417-8.746-15.637
			c-7.203-12.955-12.09-27.401-26.329-35.417c-8.408-4.733-33.172-7.054-39.958-2.291c4.943,2.675,9.698,5.585,14.73,7.893
			c7.955,3.649,12.458,10.026,17.628,16.951c8.807,11.799,20.027,21.926,30.979,31.94c5.297,4.842,12.289,7.832,20.736,13.027
			c-2.246-4.51-3.76-6.798-4.519-9.313c-0.613-2.031-0.314-4.337-0.419-6.521c0.657-0.136,1.315-0.273,1.973-0.409
			c1.426,1.529,2.982,2.957,4.258,4.603c10.637,13.733,23.761,21.99,41.78,23.879c8.234,0.862,16.441,6.673,23.647,11.694
			c16.626,11.584,31.943,24.99,40.609,43.766c7.439,16.119,8.4,32.446-3.24,47.922c-7.525,10.007-13.875,20.888-21.035,31.179
			c-10.371,14.908-18.693,18.236-35.832,13.632c-11.992-3.221-23.947-6.834-35.505-11.336c-8.711-3.394-16.466-9.248-25.18-12.632
			c-16.203-6.292-32.455-4.673-48.434,1.833c-6.777,2.76-13.913,4.63-20.73,7.302c-13.157,5.157-24.845-0.4-37.013-4.15
			c-8.997-2.773-18.373-5.334-27.693-5.818c-15.83-0.822-29.456-4.386-41.002-16.525c-9.399-9.883-22.944-13.228-36.139-15.987
			c-4.262-0.891-8.68-1.126-12.878-2.229c-17.88-4.695-32.393,4.533-47.179,11.665c-15.455,7.454-29.912,17.133-45.7,23.685
			c-10.547,4.376-22.793,4.463-34.036,7.403c-18.032,4.715-34.975-2.233-52.401-3.885c-7.707-0.73-12.16-5.769-14.647-12.482
			c-6.86-18.52-4.867-35.252,8.876-50.618c3.382-3.781,5.004-11.573,3.77-16.625c-5.361-21.941,4.53-37.112,19.677-50.818
			c25.289-22.883,57.272-29.283,89.016-35.258c11.404-2.147,24.044-0.484,35.649,1.819c19.167,3.804,33.038-6.309,47.536-15.296
			c7.158-4.437,13.859-9.632,20.63-14.67c22.585-16.809,48.882-21.362,76.026-23.708c18.107-1.564,35.948,2.915,54.396-0.333
			c17.775-3.129,35.247,2.278,47.942,16.596c4.422,4.987,7.213,11.53,10.251,17.61c3.705,7.414,6.918,15.074,10.256,22.667
			c0.483,1.102,0.474,2.421,0.692,3.639C1183.578,505.76,1182.765,506.177,1181.95,506.593z M1101.399,650.299
			c3.979-2.577,7.654-6.021,12.002-7.538c7.406-2.585,15.559-3.134,22.823-5.998c21.438-8.453,37.581,1.205,53.276,14.015
			c5.18,4.227,10.628,9.268,16.771,10.955c19.465,5.343,38.82,6.144,58.372-2.173c13.715-5.834,34.361-28.321,32.319-43.614
			c-2.146-16.08-8.899-29.356-19.122-41.543c-9.831-11.72-21.891-19.123-36.753-22.645c-6.524-1.546-12.897-4.17-18.974-7.07
			c-9.567-4.565-18.64-10.179-28.253-14.633c-20.052-9.289-38.125-20.669-51.081-39.399c-6.289-9.091-13.558-18.284-22.399-24.619
			c-9.552-6.844-20.708-15.097-33.835-9.42c-30.462,13.173-60.605,27.088-90.855,40.752c-17.022,7.689-34.381,13.42-53.528,11.542
			c-7.282-0.715-14.732-1.008-21.998-0.329c-13.551,1.266-27.001,3.564-40.531,5.102c-14.894,1.692-29.8,3.552-44.754,4.333
			c-12.889,0.673-23.606,5.788-30.858,15.63c-9.279,12.593-15.202,26.878-14.932,43.291c0.085,5.168-1.226,12.116-4.646,15.222
			c-7.335,6.658-8.626,15.068-9.818,23.501c-1.386,9.797-1.03,19.614,8.886,25.95c9.004,5.754,15.365,15.182,27.352,16.849
			c16.192,2.252,30.982-0.489,44.701-9.001c4.011-2.488,6.193-2.7,6.675,3.344c20.788-10.473,41.017-20.664,61.246-30.855
			c-24.351-2.066-44,7.581-60.948,24.228c10.775-17.881,26.477-28.425,46.437-30.728c20.941-2.416,42.1-3.852,63.171-3.947
			c16.222-0.074,32.565,1.859,48.651,4.261c13.82,2.063,23.379,10.602,29.03,23.71c4.525,10.498,12.64,14.794,24.132,13.701
			c9.323-0.887,18.619-2.063,27.928-3.109c-6.642,3.203-13.282,6.405-20.259,9.77c10.63,9.608,22.547,6.461,33.447,1.828
			c19.666-8.359,39.359-14.431,60.976-9.901c0.239,0.05,0.631-0.63,1.532-1.583c-11.724-6.689-22.687-13.727-37.284-9.424
			C1127.505,644.524,1114.378,647.161,1101.399,650.299z M1078.356,451.327c-5.091-0.591-8.465-1.424-11.799-1.282
			c-8.145,0.347-16.334,0.707-24.394,1.851c-18.717,2.658-36.805,7.242-52.729,18.263c-13.588,9.405-27.473,18.381-41.195,27.595
			c-1.412,0.948-2.603,2.225-4.872,4.198c19.507-0.81,36.746-4.574,53.026-12.731c14.013-7.021,28.181-13.747,42.405-20.332
			C1051.274,463.114,1063.924,457.715,1078.356,451.327z M1048.305,651.745c-5.266-17.486-15.963-28.547-33.808-31.793
			c-8.229-1.498-16.518-3.091-24.84-3.537c-7.998-0.427-16.073,0.569-24.114,0.941c0.872,2.008,1.771,2.541,2.736,2.709
			c16.928,2.955,32.308,8.954,44.745,21.445C1022.716,651.245,1034.579,654.281,1048.305,651.745z M785.742,653.653
			c-18.075-9.323-18.834-24.843-15.332-42.734c-10.83,10.415-12.519,21.692-6.223,33.908
			C768.231,652.678,775.311,656.145,785.742,653.653z M1232.708,674.26c22.717,8.617,38.325,3.193,43.925-14.84
			C1262.227,664.287,1247.033,669.421,1232.708,674.26z M792.368,538.519c-13.603,6.826-17.223,19.526-13.438,45.199
			C782.754,570.858,787.643,554.412,792.368,538.519z M898.167,507.288c-0.11-1.194-0.219-2.387-0.329-3.581
			c-12.776,1.181-25.552,2.363-38.327,3.543c0.108,1.2,0.215,2.399,0.323,3.599C872.613,509.663,885.39,508.475,898.167,507.288z"/>
		<path fill-rule="evenodd" clip-rule="evenodd" d="M902.587,678.562c4.32,8.417,8.787,14.866,10.904,22.01
			c1.485,5.013,0.58,11.202-0.878,16.412c-0.681,2.436-5.275,5.346-7.951,5.209c-2.657-0.136-6.102-3.356-7.424-6.086
			c-1.403-2.897-1.108-6.834-0.86-10.268c0.5-6.906,1.296-13.804,2.362-20.645C899.029,683.335,900.713,681.693,902.587,678.562z
			 M907.182,694.162c-0.858,0.042-1.716,0.083-2.574,0.124c-1.471,4.522-3.596,8.966-4.155,13.598
			c-0.311,2.57,1.994,5.457,3.119,8.199c2.189-2.013,6.191-4.002,6.216-6.042C909.854,704.76,908.168,699.457,907.182,694.162z"/>
		<path fill-rule="evenodd" clip-rule="evenodd" d="M1031.711,914.561c1.56,3.284,2.545,4.615,2.832,6.083
			c1.798,9.217,4.178,18.417,4.779,27.725c0.249,3.841-2.816,8.492-5.646,11.628c-1.056,1.171-7.361,0.046-8.414-1.728
			c-2.127-3.588-2.612-8.298-3.113-12.623c-0.185-1.586,1.381-3.46,2.356-5.079c3.743-6.211,8.513-12.075,5.352-20.191
			C1029.497,919.447,1030.575,917.959,1031.711,914.561z M1031.865,936.792c-2.711,5.122-5.196,8.897-6.642,13.036
			c-0.521,1.489,0.995,4.9,2.423,5.534c1.539,0.682,4.939-0.187,6.007-1.56C1037.75,948.534,1035.903,943.344,1031.865,936.792z"/>
		<path fill-rule="evenodd" clip-rule="evenodd" d="M1172.333,744.803c1.176,7.267,2.258,13.739,3.254,20.223
			c0.412,2.674,1.488,5.636,0.759,8.004c-1.116,3.619-2.972,7.448-5.669,9.934c-1.135,1.047-6.62-0.252-7.667-1.977
			c-2.207-3.637-4.757-8.892-3.643-12.347c2.562-7.947,7.188-15.238,11.111-22.724
			C1170.874,745.161,1172.186,744.885,1172.333,744.803z M1172.494,761.135c-0.625-0.193-1.251-0.387-1.876-0.58
			c-2.786,3.179-6.439,5.988-8.018,9.684c-0.878,2.053,1.704,5.585,2.727,8.451c2.39-1.433,6.357-2.465,6.843-4.38
			C1173.223,770.157,1172.494,765.554,1172.494,761.135z"/>
		<path fill-rule="evenodd" clip-rule="evenodd" fill="#FFF1D5" d="M904.226,886.864c11.876,0.77,23.753,1.539,37.613,2.436
			c0,8.247,0.207,17.085-0.037,25.911c-0.96,34.887-1.882,69.776-3.158,104.651c-1.357,37.061-3.183,74.103-4.637,111.159
			c-0.738,18.81-0.056,37.738-1.914,56.424c-2.338,23.532-6.438,46.901-10.335,70.248c-0.392,2.35-4.515,5.625-7.088,5.801
			c-12.466,0.848-24.996,0.688-37.497,1.087c-5.89,0.188-6.39-3.264-6.485-7.899c-0.596-29.007-3.888-57.73-11.71-85.689
			c-6.379-22.798-22.236-35.939-45.253-40.925c-14.25-3.088-28.325-1.924-42.107,1.787c-14.591,3.929-22.569,15.456-28.931,28.132
			c-12.576,25.054-19.569,51.881-25.22,79.187c-1.811,8.751-5.048,17.236-8.102,25.673c-0.64,1.768-3.255,3.813-5.122,3.985
			c-14.938,1.377-29.901,2.67-44.885,3.26c-6.274,0.246-9.038-4.115-8.475-10.395c1.19-13.282,2.245-26.577,3.517-39.851
			c2.521-26.307,6.366-52.553,7.437-78.915c1.405-34.589,0.864-69.265,0.787-103.902c-0.103-45.807-0.519-91.613-0.954-137.418
			c-0.043-4.462,1.56-5.442,5.773-5.494c33.532-0.401,67.071-0.714,100.587-1.74c23.933-0.731,47.846-2.332,71.743-3.924
			c10.552-0.704,23.341,0.967,31.014-4.354c11.142-7.726,21.213-1.751,31.499-3.401c0.805-0.129,1.847,1.224,2.78,1.888
			C904.785,885.345,904.505,886.105,904.226,886.864z M706.928,947.122c-0.024,0.267-0.048,0.533-0.073,0.798
			c-6.272,0-12.547-0.071-18.818,0.025c-3.973,0.062-6.358,1.233-6.487,6.222c-0.712,27.568-1.793,55.128-2.818,82.688
			c-0.337,9.062,4.885,14.893,14.14,14.41c10.869-0.566,21.811-3.332,32.51-2.481c9.57,0.76,11.069-3.139,11.758-10.753
			c1.864-20.609,4.284-41.168,6.221-61.772c0.61-6.49,0.601-13.062,0.481-19.589c-0.087-4.734-2.51-7.249-7.711-7.461
			C726.385,948.811,716.662,947.849,706.928,947.122z M891.759,1048.27c10.389,2.459,12.722-4.189,13.36-12.066
			c2.133-26.33,4.132-52.671,5.799-79.032c0.13-2.054-2.526-5.989-4.217-6.184c-13.479-1.548-27.05-2.272-40.566-3.533
			c-5.889-0.549-7.178,2.094-7.681,7.481c-2.369,25.375-5.143,50.713-7.937,76.045c-0.947,8.578,1.244,12.48,9.696,13.74
			C870.673,1046.279,881.239,1047.119,891.759,1048.27z M900.163,1082.36c-2.391,0.339-3.767,0.253-3.881,0.592
			c-3.262,9.681-6.897,19.281-9.354,29.173c-1.353,5.445,1.938,10.021,7.808,10.294c6.168,0.287,8.665-4.477,8.349-9.88
			C902.508,1102.661,901.217,1092.824,900.163,1082.36z"/>
		<path fill-rule="evenodd" clip-rule="evenodd" fill="#BE1E2D" d="M626.202,889.774c3.628-11.118,5.813-20.364,9.59-28.906
			c11.661-26.374,24.06-52.42,35.85-78.737c2.331-5.202,5.264-8.649,11.051-9.146c21.179-1.817,42.331-4.141,63.546-5.312
			c39.228-2.166,78.496-3.595,117.741-5.454c17.978-0.851,35.949-1.879,53.91-3.035c16.4-1.055,20.772,0.996,26.509,15.75
			c9.859,25.358,19.286,50.889,28.542,76.475c1.918,5.303,2.287,11.165,3.382,16.766c1.563,7.987-2.626,11.146-9.833,11.209
			c-13.612,0.118-27.227,0.019-40.84-0.086c-31.918-0.246-63.847-0.101-95.75-0.93c-51.674-1.343-103.125,1.624-154.511,6.563
			C659.984,886.412,644.586,887.961,626.202,889.774z M668.4,848.391c0.381,1.046,0.761,2.093,1.143,3.139
			c2.021,0,4.185,0.481,6.041-0.073c25.357-7.566,51.282-9.204,77.601-8.666c45.806,0.936,91.625,1.396,137.44,1.573
			c10.299,0.04,20.629-1.726,30.881-3.13c1.545-0.211,2.737-3.005,4.093-4.603c-1.798-0.666-3.615-1.952-5.391-1.898
			c-15.746,0.474-31.485,1.713-47.227,1.727c-45.566,0.04-91.133-0.361-136.7-0.636c-20.5-0.123-40.708,1.913-60.296,8.258
			C673.275,844.959,670.919,846.928,668.4,848.391z M746.4,787.413c-9.006,0.753-26.685,2.113-44.333,3.8
			c-3.741,0.358-7.539,1.535-10.968,3.089c-1.431,0.649-1.966,3.273-2.909,5c1.845,0.605,3.958,2.128,5.497,1.682
			c29.871-8.683,60.739-8.568,90.875-5.745c31.378,2.939,62.099-0.543,93.089-1.931c9.229-0.414,18.456-1.505,27.598-2.864
			c2.426-0.359,4.534-2.86,6.788-4.377c-2.782-0.753-5.625-2.331-8.338-2.133c-26.118,1.905-52.184,5.159-78.326,5.914
			C801.996,790.52,778.54,788.53,746.4,787.413z"/>
		<path fill-rule="evenodd" clip-rule="evenodd" fill="#603913" d="M864.197,1264.08c-49.453,1.543-97.448,3.043-146.188,4.564
			c3.282-12.942,6.6-24.936,9.342-37.061c6.313-27.906,13.203-55.365,29.007-80.051c8.751-13.671,21.603-17.312,35.358-18.396
			c19.301-1.52,38.134,1.565,50.227,19.162c4.829,7.026,9.056,15.282,10.667,23.541c3.901,20.009,6.23,40.331,8.932,60.562
			C862.725,1245.272,863.273,1254.229,864.197,1264.08z M751.203,1201.866c-3.198,3.537-6.9,5.757-7.201,8.368
			c-0.57,4.947,2.62,10.033,7.88,8.986c3.677-0.731,6.541-5.555,9.768-8.551C758.656,1208.147,755.663,1205.625,751.203,1201.866z"
			/>
		<path fill-rule="evenodd" clip-rule="evenodd" fill="#BE1E2D" d="M855.383,884.213c-55.819,6.363-111.855,4.003-167.747,7.399
			c-0.034-1.348-0.067-2.697-0.101-4.045C743.397,882.968,799.321,880.808,855.383,884.213z"/>
		<path fill-rule="evenodd" clip-rule="evenodd" fill="#E6E7E8" d="M1101.886,650.063c-9.309,1.047-18.604,2.223-27.928,3.11
			c-11.492,1.093-19.606-3.203-24.132-13.701c-5.651-13.109-15.21-21.647-29.03-23.71c-16.086-2.402-32.429-4.335-48.651-4.261
			c-21.071,0.095-42.23,1.532-63.171,3.947c-19.96,2.302-35.662,12.846-46.437,30.728c16.948-16.647,36.598-26.294,60.948-24.228
			c-20.229,10.191-40.458,20.382-61.246,30.855c-0.481-6.044-2.664-5.833-6.675-3.344c-13.719,8.512-28.509,11.253-44.701,9.001
			c-11.987-1.667-18.347-11.095-27.352-16.849c-9.916-6.336-10.272-16.153-8.886-25.95c1.192-8.433,2.483-16.843,9.818-23.501
			c3.42-3.105,4.731-10.054,4.646-15.222c-0.27-16.413,5.652-30.698,14.932-43.291c7.251-9.843,17.969-14.957,30.858-15.63
			c14.954-0.782,29.86-2.641,44.754-4.333c13.53-1.538,26.98-3.836,40.531-5.102c7.266-0.679,14.716-0.387,21.998,0.329
			c19.147,1.878,36.506-3.853,53.528-11.542c30.25-13.664,60.393-27.579,90.855-40.752c13.127-5.676,24.283,2.577,33.835,9.42
			c8.841,6.335,16.11,15.528,22.399,24.619c12.956,18.73,31.029,30.11,51.081,39.399c9.613,4.454,18.686,10.067,28.253,14.633
			c6.076,2.9,12.449,5.523,18.974,7.07c14.863,3.522,26.923,10.925,36.753,22.645c10.223,12.187,16.976,25.463,19.122,41.543
			c2.042,15.293-18.604,37.78-32.319,43.614c-19.552,8.317-38.907,7.516-58.372,2.173c-6.143-1.687-11.592-6.728-16.771-10.955
			c-15.695-12.81-31.838-22.468-53.276-14.015c-7.264,2.864-15.417,3.413-22.823,5.998c-4.348,1.518-8.023,4.961-12.002,7.538
			L1101.886,650.063z"/>
		<path fill-rule="evenodd" clip-rule="evenodd" fill="none" d="M1078.356,451.327c-14.433,6.389-27.082,11.787-39.557,17.562
			c-14.225,6.584-28.393,13.311-42.405,20.332c-16.28,8.157-33.52,11.921-53.026,12.731c2.27-1.973,3.46-3.25,4.872-4.198
			c13.722-9.214,27.607-18.189,41.195-27.595c15.924-11.021,34.012-15.604,52.729-18.263c8.06-1.144,16.249-1.504,24.394-1.851
			C1069.891,449.902,1073.265,450.736,1078.356,451.327z"/>
		<path fill-rule="evenodd" clip-rule="evenodd" fill="none" d="M1048.305,651.745c-13.726,2.536-25.589-0.5-35.281-10.234
			c-12.437-12.491-27.816-18.49-44.745-21.445c-0.964-0.168-1.864-0.701-2.736-2.709c8.042-0.372,16.116-1.369,24.114-0.941
			c8.322,0.445,16.61,2.039,24.84,3.537C1032.342,623.198,1043.04,634.259,1048.305,651.745z"/>
		<path fill-rule="evenodd" clip-rule="evenodd" fill="none" d="M1101.886,650.063l-0.486,0.235
			c12.979-3.137,26.105-5.774,38.897-9.544c14.597-4.302,25.561,2.735,37.284,9.424c-0.901,0.953-1.292,1.633-1.532,1.583
			c-21.616-4.53-41.31,1.542-60.976,9.901c-10.899,4.633-22.816,7.78-33.447-1.828
			C1088.604,656.47,1095.244,653.267,1101.886,650.063z"/>
		<path fill-rule="evenodd" clip-rule="evenodd" fill="none" d="M785.742,653.653c-10.431,2.492-17.51-0.975-21.555-8.826
			c-6.295-12.216-4.606-23.494,6.223-33.908C766.908,628.81,767.667,644.33,785.742,653.653z"/>
		<path fill-rule="evenodd" clip-rule="evenodd" fill="none" d="M1232.708,674.26c14.326-4.839,29.519-9.973,43.925-14.84
			C1271.033,677.453,1255.424,682.877,1232.708,674.26z"/>
		<path fill-rule="evenodd" clip-rule="evenodd" fill="none" d="M792.368,538.519c-4.725,15.894-9.614,32.34-13.438,45.199
			C775.145,558.045,778.766,545.344,792.368,538.519z"/>
		<path fill-rule="evenodd" clip-rule="evenodd" fill="none" d="M898.167,507.288c-12.777,1.187-25.555,2.375-38.333,3.562
			c-0.108-1.2-0.215-2.399-0.323-3.599c12.775-1.18,25.551-2.362,38.327-3.543C897.948,504.901,898.058,506.094,898.167,507.288z"/>
		<path fill-rule="evenodd" clip-rule="evenodd" fill="#00AEEF" d="M907.182,694.162c0.987,5.294,2.673,10.598,2.607,15.879
			c-0.025,2.04-4.027,4.03-6.216,6.042c-1.125-2.743-3.43-5.629-3.119-8.199c0.559-4.632,2.684-9.076,4.155-13.598
			C905.466,694.245,906.323,694.204,907.182,694.162z"/>
		<path fill-rule="evenodd" clip-rule="evenodd" fill="#00AEEF" d="M1031.865,936.792c4.038,6.552,5.885,11.743,1.788,17.01
			c-1.068,1.374-4.468,2.242-6.007,1.56c-1.429-0.633-2.944-4.044-2.423-5.534C1026.669,945.689,1029.154,941.914,1031.865,936.792z
			"/>
		<path fill-rule="evenodd" clip-rule="evenodd" fill="#00AEEF" d="M1172.494,761.135c0,4.419,0.729,9.022-0.324,13.174
			c-0.485,1.916-4.453,2.948-6.843,4.38c-1.023-2.866-3.605-6.398-2.727-8.451c1.579-3.695,5.232-6.504,8.018-9.684
			C1171.243,760.748,1171.869,760.942,1172.494,761.135z"/>
		<path fill-rule="evenodd" clip-rule="evenodd" d="M706.928,947.122c9.734,0.727,19.457,1.689,29.204,2.087
			c5.201,0.212,7.624,2.728,7.711,7.461c0.119,6.527,0.129,13.1-0.481,19.589c-1.938,20.604-4.357,41.163-6.221,61.772
			c-0.688,7.614-2.188,11.513-11.758,10.753c-10.699-0.851-21.641,1.915-32.51,2.481c-9.255,0.482-14.477-5.348-14.14-14.41
			c1.025-27.56,2.106-55.12,2.818-82.688c0.129-4.989,2.514-6.16,6.487-6.222c6.271-0.097,12.546-0.025,18.818-0.025
			C706.88,947.654,706.904,947.388,706.928,947.122z M687.903,1013.462c12.886,1.038,24.022,1.809,35.128,2.886
			c5.151,0.498,8.065-0.319,8.426-6.565c0.549-9.489,2.604-18.889,3.23-28.379c0.58-8.785,0.124-17.639,0.124-28.297
			c-13.989,0-27.257-0.172-40.506,0.25c-1.43,0.046-3.776,3.464-3.934,5.458c-0.556,7.056-0.152,14.181-0.475,21.263
			C689.391,991.16,688.589,1002.23,687.903,1013.462z M688.151,1045.614c2.29,0,5.199,0.223,8.064-0.043
			c8.383-0.774,16.737-2.277,25.125-2.455c5.811-0.123,7.391-2.553,7.833-7.713c1.12-13.077,0.107-14.4-12.981-14.76
			c-1.901-0.052-3.807,0.001-5.706-0.079c-23.901-1.009-23.902-1.013-23.261,23.275
			C687.231,1044.083,687.464,1044.32,688.151,1045.614z"/>
		<path fill-rule="evenodd" clip-rule="evenodd" d="M891.759,1048.27c-10.52-1.15-21.086-1.99-31.545-3.549
			c-8.453-1.26-10.643-5.162-9.696-13.74c2.794-25.332,5.568-50.67,7.937-76.045c0.503-5.387,1.792-8.03,7.681-7.481
			c13.516,1.261,27.087,1.985,40.566,3.533c1.691,0.195,4.347,4.129,4.217,6.184c-1.667,26.36-3.666,52.702-5.799,79.032
			C904.481,1044.08,902.148,1050.729,891.759,1048.27z M880.03,1014.016c4.54-0.237,8.116-0.834,11.608-0.519
			c6.244,0.564,7.707-2.225,7.971-8.05c0.614-13.535,2.063-27.034,3.165-40.549c0.352-4.314,0.322-8.094-5.612-8.708
			c-8.087-0.837-16.133-2.139-24.165-3.44c-4.608-0.746-6.39,1.09-6.765,5.6c-1.012,12.176-2.715,24.305-3.417,36.494
			C861.548,1016.824,858.961,1012.896,880.03,1014.016z M898.145,1029.594c0.491-10.678,0.493-10.607-10.459-10.422
			c-5.965,0.101-11.934-0.09-17.901-0.135c-9.014-0.067-10.298,1.788-10.576,11.107c-0.229,7.691,2.878,10.904,10.356,10.992
			c4.334,0.051,8.672,0.74,12.987,1.305C896.604,1044.282,897.503,1043.568,898.145,1029.594z"/>
		<path fill-rule="evenodd" clip-rule="evenodd" d="M900.163,1082.36c1.054,10.464,2.345,20.301,2.922,30.179
			c0.315,5.403-2.181,10.167-8.349,9.88c-5.871-0.272-9.161-4.849-7.808-10.294c2.457-9.892,6.092-19.492,9.354-29.173
			C896.396,1082.613,897.772,1082.699,900.163,1082.36z M893.644,1117.691c6.585-5.208,7.961-13.199,3.782-21.967
			C891.182,1103.4,889.6,1112.588,893.644,1117.691z"/>
		<path fill-rule="evenodd" clip-rule="evenodd" d="M668.4,848.391c2.52-1.463,4.875-3.432,7.584-4.31
			c19.589-6.345,39.796-8.381,60.296-8.258c45.566,0.275,91.133,0.676,136.7,0.636c15.742-0.014,31.481-1.252,47.227-1.727
			c1.776-0.054,3.593,1.232,5.391,1.898c-1.355,1.598-2.547,4.392-4.093,4.603c-10.252,1.405-20.583,3.17-30.881,3.13
			c-45.815-0.177-91.634-0.637-137.44-1.573c-26.319-0.538-52.244,1.1-77.601,8.666c-1.856,0.554-4.021,0.073-6.041,0.073
			C669.161,850.484,668.781,849.438,668.4,848.391z"/>
		<path fill-rule="evenodd" clip-rule="evenodd" d="M746.4,787.413c32.14,1.117,55.595,3.106,78.974,2.433
			c26.142-0.754,52.208-4.008,78.326-5.914c2.712-0.197,5.556,1.38,8.338,2.133c-2.254,1.518-4.362,4.018-6.788,4.377
			c-9.142,1.358-18.368,2.45-27.598,2.864c-30.99,1.388-61.711,4.87-93.089,1.931c-30.136-2.823-61.004-2.938-90.875,5.745
			c-1.539,0.447-3.652-1.076-5.497-1.682c0.943-1.727,1.478-4.351,2.909-5c3.429-1.554,7.227-2.73,10.968-3.089
			C719.715,789.526,737.394,788.166,746.4,787.413z"/>
		<path fill-rule="evenodd" clip-rule="evenodd" d="M751.203,1201.866c4.46,3.759,7.453,6.281,10.446,8.804
			c-3.227,2.996-6.09,7.819-9.767,8.551c-5.26,1.047-8.451-4.039-7.88-8.986C744.303,1207.623,748.005,1205.403,751.203,1201.866z"
			/>
		<path fill-rule="evenodd" clip-rule="evenodd" fill="#FFFFFF" d="M687.903,1013.462c0.686-11.231,1.487-22.302,1.994-33.385
			c0.323-7.082-0.082-14.207,0.475-21.263c0.158-1.994,2.504-5.412,3.934-5.458c13.249-0.422,26.518-0.25,40.506-0.25
			c0,10.658,0.456,19.512-0.124,28.297c-0.626,9.49-2.681,18.89-3.23,28.379c-0.361,6.246-3.275,7.063-8.426,6.565
			C711.926,1015.271,700.789,1014.5,687.903,1013.462z"/>
		<path fill-rule="evenodd" clip-rule="evenodd" fill="#364A9F" d="M688.151,1045.614c-0.687-1.294-0.92-1.531-0.926-1.774
			c-0.641-24.288-0.64-24.284,23.261-23.275c1.899,0.08,3.805,0.027,5.706,0.079c13.089,0.359,14.101,1.683,12.981,14.76
			c-0.442,5.16-2.022,7.59-7.833,7.713c-8.388,0.178-16.742,1.681-25.125,2.455C693.35,1045.837,690.44,1045.614,688.151,1045.614z"
			/>
		<path fill-rule="evenodd" clip-rule="evenodd" fill="#FFFFFF" d="M880.03,1014.016c-21.069-1.119-18.482,2.809-17.215-19.172
			c0.703-12.189,2.405-24.317,3.417-36.494c0.375-4.509,2.157-6.346,6.765-5.6c8.032,1.301,16.077,2.603,24.165,3.44
			c5.934,0.614,5.964,4.394,5.612,8.708c-1.101,13.515-2.55,27.014-3.165,40.549c-0.265,5.825-1.727,8.614-7.971,8.05
			C888.146,1013.182,884.57,1013.778,880.03,1014.016z"/>
		<path fill-rule="evenodd" clip-rule="evenodd" fill="#405BA9" d="M898.145,1029.594c-0.642,13.975-1.541,14.688-15.593,12.848
			c-4.315-0.564-8.653-1.254-12.987-1.305c-7.478-0.088-10.586-3.301-10.356-10.992c0.278-9.319,1.562-11.175,10.576-11.107
			c5.968,0.045,11.937,0.235,17.901,0.135C898.638,1018.986,898.636,1018.916,898.145,1029.594z"/>
		<path fill-rule="evenodd" clip-rule="evenodd" fill="#00AEEF" d="M893.644,1117.691c-4.043-5.104-2.462-14.291,3.782-21.967
			C901.605,1104.492,900.229,1112.483,893.644,1117.691z"/>
	</g>
</g>
<g id="Layer_2">
</g>
<g id="Layer_3">
</g>
</svg>
