<?xml version="1.0" encoding="utf-8"?>
<!-- Generator: Adobe Illustrator 16.0.0, SVG Export Plug-In . SVG Version: 6.00 Build 0)  -->
<!DOCTYPE svg PUBLIC "-//W3C//DTD SVG 1.1//EN" "http://www.w3.org/Graphics/SVG/1.1/DTD/svg11.dtd">
<svg version="1.1" id="Layer_1" xmlns="http://www.w3.org/2000/svg" xmlns:xlink="http://www.w3.org/1999/xlink" x="0px" y="0px"
	 width="3000px" height="2000px" viewBox="0 0 3000 2000" enable-background="new 0 0 3000 2000" xml:space="preserve">
<g>
	<path fill-rule="evenodd" clip-rule="evenodd" fill="#6D6E71" stroke="#000000" stroke-miterlimit="10" d="M1081.953,1169.095
		c-2.423,0-4.846,0-7.281,0c-7.34-23.518-14.563-46.808-14.274-72.052c0.134-11.744-5.214-23.452-6.967-35.34
		c-2.047-13.874-8.592-26.621-7.55-41.438c1.083-15.401-0.074-31.132-1.874-46.529c-3.521-30.13-7.794-60.189-12.612-90.139
		c-1.216-7.561-5.663-14.601-8.25-20.956c1.016-3.585,2.654-6.97,2.83-10.43c0.552-10.868-2.786-21.157-4.723-31.682
		c-1.334-7.248-6.082-14.584-1.991-23.743c3.636-8.142,9.289-9.871,15.997-12.488c30.71-11.987,62.567-6.136,93.984-6.124
		c27.995,0.011,56.009,0.867,83.979,2.117c34.413,1.538,68.83,3.363,103.171,6.028c25.714,1.995,51.314,5.465,76.95,8.409
		c3.441,0.395,6.777,1.628,10.19,2.343c4.587,0.961,6.166,1.549,6.828,8.262c1.869,18.954-9.65,33.796-12.254,51.204
		c-2.304,15.394-7.312,30.415-11.583,45.472c-2.756,9.713-6.729,19.081-9.464,28.798c-5.357,19.022-9.879,38.284-15.411,57.252
		c-4.844,16.613-10.907,32.869-15.839,49.459c-3.212,10.805-4.777,22.107-8.126,32.861c-5.062,16.255-11.044,32.223-16.609,48.321
		c-0.527,1.524-1.402,3.178-1.219,4.661c1.961,15.952-10.676,29.046-7.67,43.7c-11.091,4.816-20.854,9.044-30.604,13.301
		c-1.479,0.646-2.843,1.921-4.347,2.082c-19.777,2.116-39.532,4.701-59.368,5.888c-15.229,0.911-30.566-0.061-45.855-0.065
		c-29.123-0.009-57.009-6.774-84.527-15.466c-2.129-0.672-3.86-2.605-5.783-3.959c11.322,3.077,22.65,6.16,34.817,9.47
		c-15.085-13.782-29.381-26.846-44.365-40.537c4.034,22.243,4.034,22.243,11.064,20.898
		C1082.832,1161.856,1082.392,1165.476,1081.953,1169.095z M1096.299,1060.037c0.16,3.353-1.006,7.954,0.742,9.811
		c4.313,4.579,9.673,8.415,15.193,11.514c2.928,1.645,8.202,2.813,10.458,1.292c8.838-5.96,16.897-13.077,26.366-20.661
		c-7.919-5.243-15.019-9.008-20.929-14.141c-5.105-4.433-9.271-3.526-14.111-0.656c-0.599-3.547,0.072-8.612-2.025-10.364
		c-7.237-6.047-15.44-10.938-22.576-15.793c-9.806,8.381-18.639,15.933-27.219,23.267c4.619,3.541,8.482,5.567,11.064,8.662
		c6.865,8.225,13.647,10.688,23.374,7.485L1096.299,1060.037z M1133.046,1125.248c5.125-3.91,10.252-7.819,16.065-12.252
		c-10.328-6.467-19.592-12.389-29.012-18.051c-1.65-0.992-4.643-1.924-5.834-1.125c-5.175,3.47-9.912,7.592-15.601,12.104
		c7.649,5.938,14.729,10.736,20.926,16.485c4.404,4.086,8.468,5.227,13.706,2.59c-3.549,6.215-0.017,9.988,4.613,13.382
		c2.556,1.874,5.393,3.46,7.627,5.659c11.966,11.776,14.21,12.322,29.002,4.449c5.466-2.91,10.479-6.671,17.513-11.215
		c-9.818-5.571-18.225-10.04-26.314-15.021c-7.679-4.727-14.845-7.975-22.994-0.613
		C1140.363,1123.793,1136.318,1124.101,1133.046,1125.248z M1156.22,954.451c2.331,5.927-1.937,8.797-5.526,12.021
		c-9.28,8.335-18.533,16.701-28.973,26.115c7.257,4.128,14.418,6.902,19.886,11.634c7.183,6.216,11.212,3.781,16.711-2.093
		c4.478-4.785,10.647-7.988,16.066-11.892c-3.66,4.405-7.392,8.751-10.949,13.235c-1.935,2.439-3.988,4.963-5.016,7.8
		c-0.219,0.604,3.6,3.16,5.858,4.084c6.915,2.83,14.536,4.368,20.832,8.155c7.493,4.507,12.554,2.089,17.835-2.932
		c7.755-7.374,15.568-14.689,23.283-22.105c3.293-3.166,3.243-6.039-1.221-8.153c-7.263-3.441-14.838-6.359-21.701-10.469
		c-8.174-4.895-13.906-1.788-19.795,3.803c-2.767,2.627-6.208,4.543-9.359,6.793c0.719-2.199,0.793-5.115,2.284-6.455
		c3.525-3.17,7.723-5.591,11.649-8.315c-0.506-1.462-1.013-2.925-1.52-4.388c-10.178-5.548-20.355-11.096-30.533-16.644
		c-10.374-5.406-20.689-10.93-31.193-16.07c-1.379-0.675-4.432-0.047-5.506,1.102c-9.558,10.229-18.844,20.712-29.148,32.161
		c7.851,5.397,15.608,10.957,23.661,16.048c1.372,0.867,4.565,0.45,5.971-0.619c5.243-3.986,10.192-8.378,15.062-12.826
		C1142.079,967.866,1149.118,961.113,1156.22,954.451z M1132.201,871.304l-0.086-0.033c0.969,1.803,2.357,3.504,2.823,5.429
		c1.095,4.518,21.464,14.528,24.821,11.549c8.145-7.23,15.94-14.872,23.614-22.608c3.321-3.348,2.602-6.878-1.37-9.486
		c-6.884-4.521-13.815-8.971-20.804-13.501c-0.792,1.785-1.334,3.005-1.416,3.188c-3.938-4.719-7.742-9.278-12.125-14.531
		c6.627,2.159,12.751,4.153,18.875,6.148c4.563,4.867,10.016,8.653,15.305,12.658c7.707,5.833,13.872,5.415,20.425-1.968
		c4.288-4.831,8.24-9.959,12.342-14.954c0.802,0.547,1.605,1.096,2.408,1.644c-4.092,9.562-13.619,15.694-18.3,25.117
		c7.812,4.986,15.78,10.072,25.478,16.26c8.797-13.178,18.085-27.092,28.243-42.309c-4.36-1.569-7.148-3.356-10.006-3.475
		c-20.173-0.839-40.359-1.477-60.547-1.86c-6.305-0.12-12.359,0.421-18.894-0.642c-23.914-3.888-48.097-6.108-72.171-9.015
		c-9.397-1.134-16.814,3.075-20.583,12.785c-3.357,8.649,4.501,10.007,9.427,13.16c1.115,0.713,2.063,1.688,3.08,2.554
		c9.62,8.192,9.995,8.293,18.399-1.086c5.73-6.396,11.044-13.167,16.545-19.77c1.142,1.028,2.283,2.057,3.424,3.084
		c-7.466,9.769-14.933,19.538-21.156,27.681c1.558,3.083,1.904,5.194,3.011,5.728c7.892,3.806,15.869,7.467,24.012,10.687
		C1128.204,874.224,1130.434,872.178,1132.201,871.304z M1028.162,790.168c-0.009,1.055-0.018,2.109-0.026,3.164
		c4.524,3.039,8.659,7.2,13.639,8.935c35.384,12.322,72.431,15.991,109.396,19.401c20.909,1.929,41.992,2.204,63.008,2.667
		c20.913,0.461,41.927,1.46,62.742,0.012c32.166-2.239,64.524-3.834,96.076-11.389c9.812-2.35,19.37-5.769,29.044-8.698
		c-0.146-0.703-0.293-1.407-0.439-2.111c-3.138-0.478-6.338-0.707-9.405-1.472c-37.733-9.413-76.482-8.118-114.84-10.771
		c-19.078-1.32-38.268-0.939-57.37-2.002c-18.791-1.047-37.508-3.635-56.303-4.319c-32.029-1.166-64.113-2.251-96.134-1.553
		C1054.368,782.318,1041.288,787.314,1028.162,790.168z M1223.745,1107.02c-1.733-1.315-3.906-3.392-6.447-4.808
		c-6.995-3.899-14.608-6.87-21.073-11.476c-4.505-3.211-7.891-5.053-12.392-0.348c-0.246-2.869,0.361-6.194-0.734-6.91
		c-8.735-5.698-17.338-12.175-26.979-15.624c-3.793-1.357-10.155,4.335-15.29,6.932c-1.655,0.837-3.241,1.902-4.664,3.095
		c-13.841,11.602-14.205,12.279,1.751,21.297c6.482,3.661,13.337,11.242,22.63,5.372c0.245-0.153,0.871,0.298,1.366,0.485
		c-0.446,2.291-0.893,4.59-1.43,7.353c10.692,6.069,21.001,12.259,31.676,17.736c2.529,1.298,7.536,1.567,9.26-0.019
		C1209.215,1122.938,1216.24,1114.936,1223.745,1107.02z M1146.479,903.391c0.768,0.812,1.535,1.625,2.301,2.438
		c-7.346,8.134-14.693,16.268-22.596,25.018c10.414,5.326,20.516,10.73,30.879,15.578c1.924,0.9,5.947,0.505,7.219-0.904
		c8.806-9.754,17.14-19.934,26.205-30.664c-5.734-3.019-9.117-5.456-12.895-6.66c-9.435-3.008-17.364-13.872-29.066-5.96
		c-0.202,0.136-0.89-0.447-2.777-1.46c2.437-2.09,4.403-3.776,7.182-6.159c-4.917-2.477-9.892-4.361-14.17-7.268
		c-8.365-5.684-13.013-1.035-17.64,5.257c-4.055,5.515-8.803,10.55-12.527,16.265c-1.733,2.659-3.295,8.64-2.314,9.315
		c4.739,3.266,11.587,8.428,15.41,6.966c6.653-2.545,11.663-9.431,17.306-14.557
		C1141.556,908.269,1143.987,905.797,1146.479,903.391z M1300.632,1145.023c-1.844,1.035-2.438,1.612-2.723,1.487
		c-1.154-0.51-2.15-1.393-3.317-1.858c-10.82-4.324-19.978-17.561-33.789-4.89c-7.351,6.745-16.264,11.788-25.248,18.148
		c8.942,5.922,16.797,11.419,25.004,16.326c1.77,1.058,5.501,0.944,7.153-0.253c12.093-8.769,24.35-17.423,35.553-27.255
		c4.635-4.067,7.878-10.587,9.855-16.616c3.048-9.293,4.277-19.169,6.659-28.703c1-4.004,2.975-7.765,4.507-11.635
		c-0.773-0.567-1.547-1.135-2.322-1.703c-18.52,8.533-27.31,28.064-44.328,38.703
		C1286.225,1133.59,1293.197,1139.123,1300.632,1145.023z M1235.294,1106.191c4.461,2.178,7.579,3.617,10.621,5.2
		c6.261,3.257,13.049,5.864,18.529,10.137c3.966,3.091,6.697,3.011,9.762,0.198c12.171-11.169,24.184-22.512,37.064-34.545
		c-12.14-5.351-22.074-10.028-32.279-14.007c-2.436-0.949-6.729-0.657-8.554,0.926
		C1258.891,1084.118,1247.799,1094.658,1235.294,1106.191z M1269.174,1069.997c-13.303-6.727-23.443-12.095-33.843-16.903
		c-1.987-0.92-5.635-0.506-7.422,0.796c-6.812,4.962-13.271,10.427-19.672,15.925c-4.282,3.677-8.244,7.727-13.313,12.522
		c11.49,6.86,21.13,12.944,31.15,18.321c2.028,1.088,6.307,0.49,8.152-1.027c7.821-6.434,15.032-13.602,22.642-20.302
		C1260.233,1076.365,1264.018,1073.876,1269.174,1069.997z M1343.396,988.444c-13.322-4.931-24.535-9.212-35.874-13.125
		c-1.562-0.539-4.438,0.111-5.544,1.294c-7.804,8.343-15.359,16.922-22.877,25.527c-3.623,4.146-2.236,7.062,2.413,9.459
		c6.912,3.564,13.41,8.016,20.52,11.073c3.451,1.484,9.041,2.373,11.692,0.595
		C1326.203,1014.896,1332.497,1001.109,1343.396,988.444z M1304.864,1031.576c-10.901-6.419-19.801-11.908-28.984-16.871
		c-2.027-1.096-6.098-1.471-7.466-0.232c-9.506,8.607-18.8,17.49-27.619,26.8c-3.769,3.978-2.57,7.473,3.183,9.577
		c4.908,1.795,9.542,4.576,13.946,7.459c9.324,6.104,15.788,6.676,21,1.278c4.818-4.989,9.675-9.943,14.398-15.021
		C1297.04,1040.571,1300.581,1036.412,1304.864,1031.576z M1234.382,987.993c2.448-1.627,5.974-3.239,8.533-5.813
		c7.279-7.319,14.346-14.876,20.993-22.764c0.927-1.101-0.217-5.871-1.701-6.751c-7.128-4.228-14.575-7.996-22.188-11.281
		c-2.582-1.114-7.101-1.654-8.823-0.198c-9.208,7.789-17.829,16.275-26.617,24.558c-3.635,3.427-3.375,6.546,1.162,8.846
		c8.637,4.377,17.336,8.629,26.023,12.906C1232.224,987.722,1232.804,987.705,1234.382,987.993z M1256.448,839.144
		c-7.532,9.442-14.115,18.386-21.436,26.678c-7.492,8.486-6.562,14.738,3.758,19.871c2.878,1.432,5.429,4.095,8.409,4.626
		c5.687,1.013,14.292,3.476,16.86,0.765c7.372-7.777,12.494-17.742,18.169-27.049c2.53-4.149,2.205-7.738-2.929-10.584
		C1271.371,849.066,1263.91,843.874,1256.448,839.144z M1300.84,916.518c8.326-12.023,16.979-24.517,25.958-37.482
		c-9.853-4.764-18.722-9.095-27.628-13.349c-8.911-4.255-11.083-2.961-15.607,6.184c-2.879,5.819-6.721,11.386-11.094,16.189
		c-6.111,6.713-6.116,10.721,1.921,15.082C1282.533,907.56,1290.922,911.528,1300.84,916.518z M1293.112,856.592
		c10.008,4.887,19.085,9.267,28.11,13.75c4.306,2.139,7.201,2.345,10.74-2.399c7.735-10.368,8.92-22.976,13.049-34.521
		c0.805-2.25-3.012-8.834-4.842-8.893c-9.345-0.301-18.746,0.788-28.104,1.655c-1.368,0.126-3.129,1.373-3.819,2.601
		C1303.056,838.02,1298.09,847.378,1293.112,856.592z M1124.952,881.48c-10.104-6.33-19.327-12.11-30.311-18.992
		c-9.135,9.344-18.701,19.128-28.482,29.134c8.047,6.95,14.483,12.909,21.359,18.306c4.566,3.583,9.57,4.943,14.16-0.651
		C1109.207,900.1,1116.911,891.065,1124.952,881.48z M1264.391,1011.3c-1.021-1.083-1.312-1.61-1.758-1.833
		c-4.312-2.149-8.649-4.25-12.981-6.36c-13.062-6.361-13.056-6.353-23.642,3.26c-0.785,0.713-1.853,1.113-2.644,1.82
		c-8.089,7.235-16.148,14.503-24.952,22.423c10.443,4.1,18.994,7.833,27.827,10.694c2.648,0.858,7.003,0.361,9.002-1.353
		c9.332-8.002,18.136-16.623,27.057-25.1C1263.216,1013.981,1263.646,1012.6,1264.391,1011.3z M1165.097,953.233
		c9.506,4.676,17.72,8.832,26.08,12.669c0.976,0.449,3.044-0.521,4.125-1.414c8.167-6.752,16.265-13.59,24.268-20.535
		c2.64-2.291,4.938-4.975,8.219-8.323c-7.821-4.227-14.568-7.445-20.872-11.377c-10.308-6.429-10.179-6.619-18.229,2.454
		C1181.445,934.869,1174.186,943.015,1165.097,953.233z M1091.34,859.791c-8.202-5.898-15.295-11.109-22.511-16.144
		c-4.059-2.833-7.711-4.915-12.387,0.218c-4.592,5.042-10.292,9.28-16.077,12.976c-6.6,4.214-7.534,11.063-1.451,16.045
		c5.22,4.275,9.997,9.211,15.649,12.779c2.375,1.499,7.714,1.63,9.62-0.023C1073.682,877.399,1082.487,868.358,1091.34,859.791z
		 M1278.709,1067.402c12.657,4.722,24.013,9.132,35.55,13.002c1.202,0.403,3.921-2.066,5.179-3.764
		c5.063-6.83,10.178-13.672,14.522-20.956c1.623-2.723,2.631-8.946,1.464-9.684c-6.77-4.271-14.146-7.699-21.618-10.651
		c-1.745-0.689-5.187,0.982-6.924,2.575c-5.103,4.683-9.769,9.843-14.551,14.87
		C1288.345,1056.988,1284.435,1061.256,1278.709,1067.402z M1309.179,968.629c11.11,4.938,20.915,9.671,31.049,13.541
		c2.609,0.996,7.836,0.414,9.145-1.401c4.942-6.854,9.168-14.327,12.744-21.997c0.967-2.075-0.384-7.08-2.259-8.302
		c-7.144-4.654-14.857-8.478-22.558-12.198c-1.46-0.706-4.731-0.244-5.639,0.896
		C1323.912,948.902,1316.516,958.918,1309.179,968.629z M1226.732,1048.639c-10.816-4.555-20.324-8.648-29.93-12.496
		c-1.302-0.521-3.519-0.376-4.602,0.424c-10.417,7.688-20.682,15.582-31.8,24.033c9.656,6.499,17.442,12.166,25.717,16.996
		c1.956,1.143,6.366,0.465,8.265-1.077C1204.677,1068.153,1214.538,1059.254,1226.732,1048.639z M1295.33,921.581
		c-2.951-2.247-4.941-4.289-7.35-5.497c-6.451-3.233-13.355-5.641-19.549-9.28c-4.552-2.674-7.197-1.993-10.094,1.994
		c-5.016,6.904-10.316,13.602-15.477,20.401c-2.702,3.561-3.197,6.59,1.562,9.084c7.76,4.065,15.122,9.03,23.194,12.262
		c2.233,0.894,6.917-2.426,9.517-4.844c3.198-2.974,5.37-7.045,8.025-10.612C1288.309,930.859,1291.502,926.659,1295.33,921.581z
		 M1219.622,881.271c-1.124-1.232-1.981-2.673-3.245-3.47c-5.877-3.705-12.099-6.905-17.738-10.929
		c-4.162-2.97-8.392-2.462-10.652,0.766c-6.26,8.94-17.15,13.165-22.382,22.808c-0.847,1.562-0.216,5.636,0.996,6.324
		c7.616,4.326,15.414,8.469,23.549,11.662c2.529,0.992,7.396-0.087,9.286-2.051c6.646-6.912,12.479-14.609,18.572-22.048
		C1218.659,883.536,1218.996,882.481,1219.622,881.271z M1229.057,928.778c3.111-0.772,5.1-0.659,6.037-1.597
		c6.87-6.869,13.698-13.802,20.067-21.125c0.929-1.069,0.108-5.561-1.192-6.355c-7.729-4.718-15.62-9.324-23.935-12.839
		c-2.879-1.218-8.489-0.512-10.487,1.577c-5.881,6.146-10.795,13.279-15.573,20.373c-1.086,1.612-0.972,6.137,0.086,6.753
		C1212.483,920.47,1221.267,924.757,1229.057,928.778z M1062.079,947.859c9.093-8.148,19.264-17.261,30.911-27.698
		c-8.177-5.965-15.308-11.77-23.072-16.545c-3.296-2.027-8.722-3.714-11.77-2.367c-6.236,2.756-13.744,6.026-13.371,14.938
		C1045.293,928.478,1045.28,941.236,1062.079,947.859z M1270.812,958.059c-4.54,5.201-8.288,9.684-12.246,13.974
		c-3.935,4.265-8.331,8.125-12.029,12.576c-1.892,2.276-2.7,5.455-3.997,8.225c9.36,3.734,18.707,7.505,28.125,11.086
		c0.439,0.167,1.579-1.313,2.299-2.112c8.708-9.651,17.399-19.318,26.781-29.746
		C1289.487,967.097,1279.958,962.484,1270.812,958.059z M1352.875,834.133c-1.688,3.342-2.92,5.371-3.775,7.548
		c-3.195,8.134-5.723,16.582-9.523,24.416c-4.612,9.504-5.146,9.868,3.881,14.994c4.575,2.598,9.758,4.287,14.856,5.7
		c1.432,0.396,4.123-1.205,5.213-2.658c2.207-2.942,3.706-6.415,5.513-9.66c4.052-7.278,8.114-14.55,12.541-22.487
		C1372.874,846.572,1363.438,840.703,1352.875,834.133z M1357.51,893.731c-6.784-3.437-12.407-5.866-17.587-9.021
		c-5.873-3.577-10.248-2.049-13.794,3.062c-6.202,8.938-12.275,17.97-18.235,27.072c-2.716,4.146-1.687,6.897,3.445,8.186
		c4.83,1.213,10.464,1.865,14.035,4.826c5.388,4.467,8.967,1.595,11.38-1.826C1343.798,916.045,1350.042,905.494,1357.51,893.731z
		 M1202.288,1137.48c6.658,3.674,13.118,5.635,17.236,9.872c6.881,7.084,12.482,5.18,19.066,0.425
		c8.487-6.129,17.189-11.959,27.148-18.852c-11.688-6.036-22.037-11.465-32.503-16.657c-1.084-0.538-3.338-0.181-4.259,0.644
		C1220.51,1120.5,1212.218,1128.283,1202.288,1137.48z M1126.355,1038.892c11.606,7.48,21.372,13.774,30.963,19.956
		c5.581-5.246,10.203-9.683,14.929-14.005c4.638-4.241,9.382-8.368,14.853-13.23c-12.035-5.172-22.985-9.968-34.042-14.5
		c-1.204-0.493-3.488,0.021-4.492,0.929C1141.641,1024.302,1134.923,1030.791,1126.355,1038.892z M1275.287,954.5
		c9.259,3.756,17.039,7.165,25.036,9.955c1.709,0.596,4.914-0.388,6.216-1.78c6.897-7.379,13.417-15.112,20.048-22.739
		c3.032-3.487,1.58-5.928-2.07-7.43c-3.966-1.631-8.095-2.865-12.104-4.397c-12.537-4.792-12.398-4.717-20.483,5.956
		C1286.827,940.8,1281.268,947.188,1275.287,954.5z M1155.062,1161.826c-0.443-1.259-0.481-2.261-0.997-2.695
		c-8.566-7.214-17.101-14.473-25.898-21.395c-1.418-1.115-4.665-1.625-6.056-0.771c-7.929,4.875-15.552,10.249-23.779,15.79
		c8.522,7.037,15.931,13.547,23.806,19.43c2.517,1.88,7.045,3.806,9.324,2.775
		C1139.629,1171.267,1147.227,1166.314,1155.062,1161.826z M1224.148,1158.495c-8.631-5.85-15.183-11.113-22.508-14.866
		c-3.096-1.585-8.387-1.171-11.686,0.41c-6.476,3.103-12.314,7.569-18.301,11.643c-4.396,2.988-3.357,6.108,0.13,9.174
		c5.018,4.412,9.74,9.204,15.062,13.204c1.871,1.406,5.952,2.226,7.63,1.146C1204.132,1172.992,1213.37,1166.129,1224.148,1158.495z
		 M1116.631,934.059c-5.323-3.464-9.046-5.584-12.426-8.157c-5.384-4.098-9.527-2.48-13.761,1.93
		c-5.168,5.384-11.081,10.094-15.914,15.745c-2.648,3.096-10.799,2.223-7.932,8.891c1.684,3.915,5.923,6.786,9.2,9.931
		c1.112,1.068,3.211,1.203,4.141,2.348c3.016,3.713,5.8,3.228,8.673,0.058c4.05-4.47,8.008-9.023,12.072-13.48
		C1105.662,945.863,1110.708,940.465,1116.631,934.059z M1364.631,946.62c4.682-14.398,9.198-28.281,13.912-42.776
		c-4.075-1.657-7.588-3.633-11.353-4.431c-2.69-0.571-7.22-0.644-8.344,0.92c-6.802,9.46-13.037,19.351-18.943,29.401
		c-0.749,1.274,0.895,5.461,2.506,6.351C1349.059,939.758,1356.124,942.682,1364.631,946.62z M1094.904,1151.194
		c8.345-6.081,15.354-10.941,21.977-16.281c0.994-0.802,1.045-4.834,0.062-5.696c-7.021-6.161-14.319-12.026-21.803-17.62
		c-1.303-0.975-4.351-0.984-5.823-0.125c-6.311,3.688-12.334,7.87-19.893,12.806
		C1077.813,1133.14,1086.053,1141.844,1094.904,1151.194z M1124.661,1034.678c2.509-3.097,5.208-6.758,8.255-10.102
		c3.456-3.792,7.224-7.299,10.856-10.93c-4.664-2.969-9.197-6.17-14.015-8.863c-13.562-7.58-13.579-7.469-24.492,3.164
		c-1.485,1.448-3.564,2.276-5.109,3.678c-1.466,1.328-3.812,3.252-3.584,4.521c0.353,1.965,2.219,4.179,4.05,5.265
		C1107.708,1025.617,1115.034,1029.419,1124.661,1034.678z M1403.022,809.54c-14.016,3.284-27.487,6.427-40.946,9.618
		c-1.029,0.244-2.079,0.677-2.945,1.275c-4.058,2.804-5.07,9.388-1.437,11.781c6.688,4.406,13.562,8.617,20.744,12.121
		c1.736,0.847,6.313-0.613,7.303-2.327C1391.874,831.373,1397.356,820.363,1403.022,809.54z M1110.786,994.391
		c-6.898-4.767-13.724-9.329-20.371-14.137c-3.756-2.718-6.418-2.279-9.72,1.088c-3.883,3.96-8.382,7.417-12.995,10.53
		c-4.753,3.208-4.225,5.554,0.256,8.188c5.062,2.975,10.017,6.139,15.133,9.017c5.157,2.9,9.826,3.393,14.267-1.971
		C1100.893,1002.835,1105.426,999.387,1110.786,994.391z M1049.311,994.854c1.306,14.563,2.449,27.314,3.577,39.895
		c7.929,2.431,25.178-7.673,30.72-17.766C1072.891,1010.068,1062.152,1003.14,1049.311,994.854z M1198.243,1184.844
		c0.185,0.732,0.371,1.465,0.556,2.198c19.334-1.615,38.669-3.229,58.003-4.844c0.259-1.113,0.518-2.226,0.776-3.339
		c-7.112-4.469-14.235-8.923-21.334-13.412c-5.826-3.684-10.616-0.582-15.245,2.485c-6.208,4.112-12.266,8.455-18.312,12.807
		C1201.062,1181.908,1199.716,1183.466,1198.243,1184.844z M1048.882,990.118c15.791,4.601,20.856-8.194,32.312-13.998
		c-7.281-6.684-13.456-13.031-20.373-18.428c-3.814-2.978-11.711,1.806-11.865,6.864
		C1048.689,973.337,1048.882,982.133,1048.882,990.118z M1353.079,992.387c-1.11-0.616-2.221-1.232-3.331-1.849
		c-2.6,2.617-5.395,5.071-7.764,7.883c-6.977,8.276-13.915,16.592-20.545,25.143c-1.256,1.619-2.109,5.784-1.311,6.4
		c5.077,3.925,10.669,7.184,17.898,11.821C1343.513,1023.778,1348.296,1008.083,1353.079,992.387z M1058.156,835.182
		c-10.723-8.097-20.434-15.429-30.145-22.76c-0.54,0.655-1.079,1.311-1.619,1.965c2.673,12.727,5.347,25.454,8.118,38.647
		C1045.257,852.094,1050.009,842.358,1058.156,835.182z M1260.241,834.312c7.465,5.468,14.583,11.258,22.346,15.993
		c2.118,1.292,7.915,0.529,9.027-1.208c4.311-6.735,7.413-14.243,11.013-21.561C1290.709,825.574,1266.541,829.38,1260.241,834.312z
		 M1182.244,1186.113c0.505-1.191,1.012-2.383,1.518-3.573c-7.304-5.524-14.547-11.137-21.989-16.469
		c-0.974-0.698-3.23-0.453-4.458,0.188c-8.699,4.542-17.284,9.302-25.906,13.992c-0.021,0.633-0.041,1.267-0.061,1.899
		C1148.313,1183.471,1165.278,1184.792,1182.244,1186.113z M1112.163,1089.891c-3.652-3.315-5.721-5.436-8.029-7.25
		c-14.343-11.275-18.516-11.386-31.14,0.155c5.893,4.982,11.529,10.013,17.485,14.63c1.851,1.436,5.259,3.102,6.767,2.332
		C1102.291,1097.186,1106.799,1093.559,1112.163,1089.891z M1062.69,833.086c3.769-5.054,7.545-10.119,11.551-15.492
		c-16.972-5.584-32.079-10.554-47.812-15.73C1038.411,812.181,1050.124,822.266,1062.69,833.086z M1089.125,1106.343
		c-8.132-7.548-15.51-14.396-23.27-21.601c0,9.634-0.305,17.874,0.097,26.078c0.32,6.552,4.292,8.702,9.66,5.419
		C1079.896,1113.617,1083.764,1110.313,1089.125,1106.343z M1389.914,855.704c-1.291-0.535-2.58-1.07-3.871-1.604
		c-6.471,11.139-13.274,22.111-19.04,33.603c-0.821,1.634,2.729,6.91,5.432,8.502c3.537,2.083,6.82,0.821,7.914-4.526
		c1.381-6.753,4.201-13.198,6.04-19.875C1387.844,866.514,1388.759,861.076,1389.914,855.704z M1082.301,1068.051
		c-8.516-6.702-16.317-12.844-26.023-20.483c2.351,8.921,4.175,15.533,5.823,22.188c1.483,5.991,6.75,8.338,12.034,4.955
		C1076.766,1073.027,1079.024,1070.757,1082.301,1068.051z M1038.214,879.961c-0.583,0.438-1.166,0.875-1.748,1.313
		c1.537,7.28,2.821,14.629,4.822,21.78c0.405,1.449,4.764,3.4,5.179,2.987c3.49-3.469,6.486-7.436,10.104-11.829
		C1050.426,889.441,1044.32,884.702,1038.214,879.961z M1307.352,1154.11c-0.849-0.323-1.697-0.647-2.546-0.972
		c-10.409,8.199-20.818,16.397-31.379,24.716c8.039-0.288,26.854-8.432,30.81-14.058
		C1306.098,1161.146,1306.362,1157.374,1307.352,1154.11z"/>
	<path fill-rule="evenodd" clip-rule="evenodd" fill="#E2F4F8" stroke="#000000" stroke-miterlimit="10" d="M1028.162,790.168
		c13.126-2.854,26.207-7.85,39.388-8.138c32.021-0.698,64.105,0.388,96.134,1.553c18.794,0.684,37.512,3.272,56.303,4.319
		c19.102,1.063,38.292,0.683,57.37,2.002c38.357,2.654,77.106,1.358,114.84,10.771c3.066,0.765,6.267,0.994,9.405,1.472
		c0.146,0.704,0.292,1.408,0.439,2.111c-9.674,2.929-19.231,6.349-29.044,8.698c-31.552,7.555-63.91,9.15-96.076,11.389
		c-20.815,1.449-41.83,0.45-62.742-0.012c-21.016-0.463-42.099-0.737-63.008-2.667c-36.964-3.41-74.012-7.079-109.396-19.401
		c-4.98-1.734-9.114-5.896-13.639-8.935C1028.144,792.277,1028.153,791.223,1028.162,790.168z"/>
	<path fill-rule="evenodd" clip-rule="evenodd" fill="#6D6E71" stroke="#000000" stroke-miterlimit="10" d="M1132.201,871.304
		c-1.767,0.874-3.997,2.919-5.227,2.433c-8.143-3.22-16.12-6.881-24.012-10.687c-1.107-0.534-1.453-2.646-3.011-5.728
		c6.223-8.143,13.69-17.912,21.156-27.681c-1.142-1.028-2.283-2.057-3.424-3.084c-5.5,6.604-10.814,13.374-16.545,19.77
		c-8.404,9.379-8.779,9.279-18.399,1.086c-1.016-0.865-1.965-1.84-3.08-2.554c-4.925-3.152-12.784-4.511-9.427-13.16
		c3.769-9.71,11.186-13.918,20.583-12.785c24.074,2.906,48.257,5.126,72.171,9.015c6.535,1.062,12.589,0.521,18.894,0.642
		c20.188,0.383,40.374,1.021,60.547,1.86c2.858,0.119,5.646,1.905,10.006,3.475c-10.158,15.217-19.446,29.131-28.243,42.309
		c-9.698-6.188-17.666-11.274-25.478-16.26c4.681-9.422,14.208-15.555,18.3-25.117c-0.802-0.548-1.605-1.096-2.408-1.644
		c-4.103,4.995-8.055,10.124-12.342,14.954c-6.554,7.383-12.719,7.802-20.425,1.968c-5.289-4.004-10.742-7.791-15.305-12.658
		c-6.124-1.995-12.248-3.989-18.875-6.148c4.382,5.252,8.187,9.812,12.125,14.531c0.082-0.184,0.624-1.403,1.416-3.188
		c6.988,4.53,13.919,8.98,20.804,13.501c3.972,2.608,4.691,6.139,1.37,9.486c-7.674,7.736-15.469,15.378-23.614,22.608
		c-3.357,2.979-23.726-7.031-24.821-11.549c-0.466-1.924-1.854-3.625-2.79-5.411c2.889-0.034,7.143,1.102,8.364-0.337
		c5.829-6.87,10.835-14.438,16.133-21.759c-0.68-0.532-1.361-1.065-2.042-1.599c-1.983,2.285-3.878,4.657-5.97,6.839
		C1143.202,860.102,1137.684,865.687,1132.201,871.304z"/>
	<path fill-rule="evenodd" clip-rule="evenodd" fill="#6D6E71" stroke="#000000" stroke-miterlimit="10" d="M1223.745,1107.02
		c-7.505,7.916-14.53,15.919-22.326,23.086c-1.725,1.586-6.731,1.316-9.26,0.019c-10.675-5.478-20.984-11.667-31.676-17.736
		c0.537-2.763,0.984-5.062,1.43-7.353c-0.495-0.188-1.122-0.639-1.366-0.485c-9.293,5.87-16.148-1.711-22.63-5.372
		c-15.956-9.018-15.592-9.695-1.751-21.297c1.423-1.192,3.008-2.258,4.664-3.095c5.135-2.597,11.497-8.289,15.29-6.932
		c9.641,3.449,18.244,9.926,26.979,15.624c1.096,0.716,0.488,4.041,0.734,6.91c4.501-4.705,7.887-2.863,12.392,0.348
		c6.465,4.605,14.078,7.576,21.073,11.476C1219.839,1103.628,1222.012,1105.704,1223.745,1107.02z"/>
	<path fill-rule="evenodd" clip-rule="evenodd" fill="#6D6E71" stroke="#000000" stroke-miterlimit="10" d="M1146.479,903.391
		c-2.491,2.406-4.923,4.878-7.485,7.205c-5.644,5.126-10.653,12.012-17.306,14.557c-3.823,1.462-10.671-3.701-15.41-6.966
		c-0.98-0.675,0.581-6.656,2.314-9.315c3.724-5.715,8.472-10.75,12.527-16.265c4.627-6.292,9.275-10.941,17.64-5.257
		c4.279,2.907,9.253,4.792,14.17,7.268c-2.778,2.383-4.745,4.069-7.182,6.159c1.888,1.014,2.575,1.597,2.777,1.46
		c11.702-7.911,19.631,2.952,29.066,5.96c3.777,1.204,7.161,3.642,12.895,6.66c-9.065,10.73-17.399,20.91-26.205,30.664
		c-1.271,1.409-5.295,1.804-7.219,0.904c-10.363-4.847-20.465-10.252-30.879-15.578c7.903-8.75,15.25-16.884,22.596-25.018
		C1148.013,905.016,1147.246,904.204,1146.479,903.391z"/>
	<path fill-rule="evenodd" clip-rule="evenodd" fill="#6D6E71" stroke="#000000" stroke-miterlimit="10" d="M1300.632,1145.023
		c-7.435-5.9-14.407-11.434-22.995-18.248c17.019-10.639,25.809-30.17,44.328-38.703c0.775,0.568,1.549,1.136,2.322,1.703
		c-1.532,3.87-3.506,7.631-4.507,11.635c-2.382,9.534-3.611,19.41-6.659,28.703c-1.978,6.029-5.221,12.549-9.855,16.616
		c-11.204,9.832-23.46,18.486-35.553,27.255c-1.651,1.197-5.383,1.311-7.153,0.253c-8.207-4.907-16.062-10.404-25.004-16.326
		c8.983-6.36,17.896-11.403,25.248-18.148c13.812-12.671,22.969,0.565,33.789,4.89c1.167,0.466,2.163,1.349,3.317,1.858
		C1298.193,1146.636,1298.788,1146.059,1300.632,1145.023z"/>
	<path fill-rule="evenodd" clip-rule="evenodd" fill="#6D6E71" stroke="#000000" stroke-miterlimit="10" d="M1235.294,1106.191
		c12.505-11.533,23.597-22.073,35.144-32.091c1.824-1.583,6.118-1.875,8.554-0.926c10.206,3.979,20.14,8.656,32.279,14.007
		c-12.88,12.033-24.893,23.376-37.064,34.545c-3.065,2.812-5.796,2.893-9.762-0.198c-5.48-4.272-12.269-6.88-18.529-10.137
		C1242.873,1109.809,1239.755,1108.369,1235.294,1106.191z"/>
	<path fill-rule="evenodd" clip-rule="evenodd" fill="#6D6E71" stroke="#000000" stroke-miterlimit="10" d="M1174.168,990.436
		c3.135-2.238,6.576-4.154,9.343-6.781c5.89-5.591,11.622-8.697,19.795-3.803c6.862,4.11,14.438,7.028,21.701,10.469
		c4.463,2.114,4.514,4.988,1.221,8.153c-7.715,7.416-15.528,14.731-23.283,22.105c-5.281,5.021-10.343,7.438-17.835,2.932
		c-6.296-3.787-13.917-5.325-20.832-8.155c-2.258-0.924-6.077-3.479-5.858-4.084c1.028-2.837,3.081-5.36,5.016-7.8
		c3.558-4.484,7.29-8.831,10.949-13.235L1174.168,990.436z"/>
	<path fill-rule="evenodd" clip-rule="evenodd" fill="#6D6E71" stroke="#000000" stroke-miterlimit="10" d="M1269.174,1069.997
		c-5.156,3.879-8.941,6.368-12.307,9.332c-7.61,6.7-14.82,13.868-22.642,20.302c-1.845,1.518-6.124,2.115-8.152,1.027
		c-10.02-5.377-19.66-11.461-31.15-18.321c5.069-4.796,9.031-8.846,13.313-12.522c6.401-5.498,12.86-10.963,19.672-15.925
		c1.787-1.302,5.435-1.716,7.422-0.796C1245.73,1057.902,1255.871,1063.271,1269.174,1069.997z"/>
	<path fill-rule="evenodd" clip-rule="evenodd" fill="#6D6E71" stroke="#000000" stroke-miterlimit="10" d="M1343.396,988.444
		c-10.899,12.665-17.193,26.452-29.67,34.823c-2.651,1.778-8.241,0.89-11.692-0.595c-7.11-3.058-13.608-7.509-20.52-11.073
		c-4.648-2.396-6.036-5.312-2.413-9.459c7.518-8.605,15.073-17.184,22.877-25.527c1.106-1.184,3.982-1.833,5.544-1.294
		C1318.862,979.232,1330.074,983.514,1343.396,988.444z"/>
	<path fill-rule="evenodd" clip-rule="evenodd" fill="#6D6E71" stroke="#000000" stroke-miterlimit="10" d="M1304.864,1031.576
		c-4.283,4.836-7.825,8.995-11.542,12.99c-4.724,5.077-9.58,10.031-14.398,15.021c-5.212,5.397-11.676,4.825-21-1.278
		c-4.403-2.883-9.038-5.664-13.946-7.459c-5.753-2.104-6.952-5.6-3.183-9.577c8.819-9.31,18.113-18.192,27.619-26.8
		c1.368-1.238,5.439-0.863,7.466,0.232C1285.063,1019.668,1293.963,1025.157,1304.864,1031.576z"/>
	<path fill-rule="evenodd" clip-rule="evenodd" fill="#6D6E71" stroke="#000000" stroke-miterlimit="10" d="M1234.382,987.993
		c-1.578-0.288-2.158-0.271-2.618-0.497c-8.687-4.277-17.386-8.529-26.023-12.906c-4.538-2.299-4.797-5.419-1.162-8.846
		c8.789-8.283,17.409-16.769,26.617-24.558c1.722-1.457,6.241-0.917,8.823,0.198c7.612,3.285,15.06,7.054,22.188,11.281
		c1.484,0.88,2.628,5.65,1.701,6.751c-6.647,7.888-13.714,15.445-20.993,22.764C1240.355,984.753,1236.83,986.365,1234.382,987.993z
		"/>
	<path fill-rule="evenodd" clip-rule="evenodd" fill="#6D6E71" stroke="#000000" stroke-miterlimit="10" d="M1256.448,839.144
		c7.462,4.73,14.923,9.923,22.832,14.307c5.134,2.846,5.459,6.435,2.929,10.584c-5.675,9.307-10.797,19.272-18.169,27.049
		c-2.569,2.711-11.174,0.249-16.86-0.765c-2.98-0.531-5.531-3.194-8.409-4.626c-10.321-5.133-11.25-11.385-3.758-19.871
		C1242.333,857.53,1248.916,848.586,1256.448,839.144z"/>
	<path fill-rule="evenodd" clip-rule="evenodd" fill="#6D6E71" stroke="#000000" stroke-miterlimit="10" d="M1300.84,916.518
		c-9.918-4.99-18.307-8.958-26.45-13.376c-8.038-4.36-8.033-8.369-1.921-15.082c4.373-4.803,8.214-10.37,11.094-16.189
		c4.525-9.146,6.697-10.439,15.607-6.184c8.907,4.253,17.776,8.584,27.628,13.349
		C1317.819,892.001,1309.166,904.495,1300.84,916.518z"/>
	<path fill-rule="evenodd" clip-rule="evenodd" fill="#6D6E71" stroke="#000000" stroke-miterlimit="10" d="M1156.226,954.435
		c-7.108,6.678-14.146,13.432-21.347,20.008c-4.869,4.448-9.819,8.839-15.062,12.826c-1.405,1.069-4.599,1.485-5.971,0.619
		c-8.053-5.091-15.81-10.651-23.661-16.048c10.304-11.449,19.59-21.932,29.148-32.161c1.074-1.149,4.127-1.777,5.506-1.102
		c10.503,5.141,20.819,10.665,31.19,16.078C1156.025,954.662,1156.226,954.435,1156.226,954.435z"/>
	<path fill-rule="evenodd" clip-rule="evenodd" fill="#6D6E71" stroke="#000000" stroke-miterlimit="10" d="M1293.112,856.592
		c4.979-9.214,9.944-18.573,15.133-27.807c0.69-1.228,2.452-2.474,3.819-2.601c9.358-0.867,18.759-1.956,28.104-1.655
		c1.83,0.059,5.647,6.643,4.842,8.893c-4.128,11.544-5.313,24.153-13.049,34.521c-3.539,4.744-6.434,4.538-10.74,2.399
		C1312.197,865.859,1303.12,861.479,1293.112,856.592z"/>
	<path fill-rule="evenodd" clip-rule="evenodd" fill="#6D6E71" stroke="#000000" stroke-miterlimit="10" d="M1174.385,990.236
		c-5.419,3.904-11.588,7.107-16.066,11.892c-5.499,5.874-9.528,8.309-16.711,2.093c-5.467-4.732-12.628-7.506-19.886-11.634
		c10.439-9.414,19.692-17.779,28.973-26.115c3.589-3.224,7.857-6.095,5.528-12.03c0.003-0.008-0.197,0.219-0.193,0.211
		c10.181,5.54,20.358,11.088,30.536,16.636c0.507,1.463,1.013,2.926,1.52,4.388c-3.926,2.724-8.124,5.145-11.649,8.315
		c-1.491,1.34-1.565,4.256-2.275,6.448C1174.168,990.436,1174.385,990.236,1174.385,990.236z"/>
	<path fill-rule="evenodd" clip-rule="evenodd" fill="#6D6E71" stroke="#000000" stroke-miterlimit="10" d="M1124.952,881.48
		c-8.041,9.585-15.745,18.619-23.273,27.796c-4.589,5.594-9.594,4.235-14.16,0.651c-6.876-5.397-13.312-11.355-21.359-18.306
		c9.781-10.006,19.347-19.791,28.482-29.134C1105.625,869.37,1114.848,875.15,1124.952,881.48z"/>
	<path fill-rule="evenodd" clip-rule="evenodd" fill="#6D6E71" stroke="#000000" stroke-miterlimit="10" d="M1264.391,1011.3
		c-0.744,1.3-1.175,2.682-2.091,3.552c-8.92,8.477-17.725,17.098-27.057,25.1c-1.999,1.714-6.354,2.211-9.002,1.353
		c-8.833-2.861-17.384-6.595-27.827-10.694c8.803-7.92,16.862-15.188,24.952-22.423c0.791-0.707,1.858-1.107,2.644-1.82
		c10.586-9.612,10.58-9.621,23.642-3.26c4.332,2.11,8.668,4.211,12.981,6.36C1263.078,1009.689,1263.37,1010.217,1264.391,1011.3z"
		/>
	<path fill-rule="evenodd" clip-rule="evenodd" fill="#6D6E71" stroke="#000000" stroke-miterlimit="10" d="M1165.097,953.233
		c9.089-10.218,16.348-18.365,23.59-26.526c8.05-9.072,7.921-8.882,18.229-2.454c6.304,3.932,13.051,7.15,20.872,11.377
		c-3.282,3.348-5.58,6.032-8.219,8.323c-8.003,6.945-16.101,13.783-24.268,20.535c-1.081,0.893-3.149,1.862-4.125,1.414
		C1182.817,962.065,1174.604,957.909,1165.097,953.233z"/>
	<path fill-rule="evenodd" clip-rule="evenodd" fill="#6D6E71" stroke="#000000" stroke-miterlimit="10" d="M1091.34,859.791
		c-8.853,8.568-17.658,17.609-27.157,25.851c-1.905,1.653-7.245,1.521-9.62,0.023c-5.652-3.568-10.429-8.504-15.649-12.779
		c-6.083-4.982-5.148-11.831,1.451-16.045c5.785-3.696,11.484-7.934,16.077-12.976c4.675-5.133,8.328-3.051,12.387-0.218
		C1076.044,848.682,1083.138,853.893,1091.34,859.791z"/>
	<path fill-rule="evenodd" clip-rule="evenodd" fill="#6D6E71" stroke="#000000" stroke-miterlimit="10" d="M1278.709,1067.402
		c5.725-6.146,9.635-10.414,13.624-14.607c4.782-5.027,9.448-10.188,14.551-14.87c1.737-1.593,5.179-3.265,6.924-2.575
		c7.472,2.952,14.848,6.38,21.618,10.651c1.167,0.737,0.159,6.961-1.464,9.684c-4.345,7.284-9.459,14.126-14.522,20.956
		c-1.258,1.697-3.977,4.167-5.179,3.764C1302.723,1076.534,1291.366,1072.124,1278.709,1067.402z"/>
	<path fill-rule="evenodd" clip-rule="evenodd" fill="#6D6E71" stroke="#000000" stroke-miterlimit="10" d="M1309.179,968.629
		c7.337-9.711,14.733-19.727,22.482-29.461c0.907-1.14,4.179-1.602,5.639-0.896c7.701,3.72,15.414,7.543,22.558,12.198
		c1.875,1.222,3.226,6.227,2.259,8.302c-3.575,7.67-7.802,15.143-12.744,21.997c-1.309,1.815-6.536,2.397-9.145,1.401
		C1330.094,978.3,1320.289,973.567,1309.179,968.629z"/>
	<path fill-rule="evenodd" clip-rule="evenodd" fill="#6D6E71" stroke="#000000" stroke-miterlimit="10" d="M1226.732,1048.639
		c-12.194,10.615-22.055,19.515-32.35,27.88c-1.898,1.542-6.309,2.22-8.265,1.077c-8.275-4.83-16.062-10.497-25.717-16.996
		c11.119-8.451,21.383-16.346,31.8-24.033c1.083-0.8,3.299-0.945,4.602-0.424C1206.408,1039.99,1215.916,1044.084,1226.732,1048.639
		z"/>
	<path fill-rule="evenodd" clip-rule="evenodd" fill="#6D6E71" stroke="#000000" stroke-miterlimit="10" d="M1295.33,921.581
		c-3.827,5.078-7.021,9.278-10.172,13.509c-2.655,3.567-4.827,7.638-8.025,10.612c-2.6,2.418-7.284,5.738-9.517,4.844
		c-8.072-3.232-15.434-8.197-23.194-12.262c-4.759-2.494-4.264-5.523-1.562-9.084c5.16-6.8,10.46-13.498,15.477-20.401
		c2.897-3.987,5.542-4.668,10.094-1.994c6.193,3.639,13.098,6.047,19.549,9.28C1290.389,917.292,1292.379,919.334,1295.33,921.581z"
		/>
	<path fill-rule="evenodd" clip-rule="evenodd" fill="#6D6E71" stroke="#000000" stroke-miterlimit="10" d="M1219.622,881.271
		c-0.626,1.211-0.963,2.266-1.615,3.062c-6.093,7.439-11.926,15.136-18.572,22.048c-1.889,1.964-6.757,3.043-9.286,2.051
		c-8.135-3.193-15.933-7.336-23.549-11.662c-1.211-0.688-1.843-4.762-0.996-6.324c5.232-9.643,16.122-13.868,22.382-22.808
		c2.26-3.228,6.49-3.736,10.652-0.766c5.639,4.024,11.861,7.225,17.738,10.929C1217.641,878.598,1218.498,880.038,1219.622,881.271z
		"/>
	<path fill-rule="evenodd" clip-rule="evenodd" fill="#6D6E71" stroke="#000000" stroke-miterlimit="10" d="M1229.057,928.778
		c-7.79-4.021-16.574-8.308-24.997-13.213c-1.058-0.616-1.172-5.142-0.086-6.753c4.777-7.093,9.691-14.227,15.573-20.373
		c1.999-2.089,7.608-2.794,10.487-1.577c8.315,3.515,16.207,8.121,23.935,12.839c1.301,0.794,2.121,5.286,1.192,6.355
		c-6.369,7.324-13.197,14.256-20.067,21.125C1234.156,928.119,1232.168,928.006,1229.057,928.778z"/>
	<path fill-rule="evenodd" clip-rule="evenodd" fill="#6D6E71" stroke="#000000" stroke-miterlimit="10" d="M1062.079,947.859
		c-16.798-6.623-16.786-19.381-17.301-31.672c-0.374-8.911,7.134-12.182,13.371-14.938c3.048-1.347,8.474,0.34,11.77,2.367
		c7.764,4.776,14.895,10.58,23.072,16.545C1081.342,930.598,1071.171,939.711,1062.079,947.859z"/>
	<path fill-rule="evenodd" clip-rule="evenodd" fill="#6D6E71" stroke="#000000" stroke-miterlimit="10" d="M1270.812,958.059
		c9.146,4.426,18.675,9.038,28.933,14.002c-9.382,10.428-18.073,20.095-26.781,29.746c-0.72,0.799-1.86,2.279-2.299,2.112
		c-9.418-3.581-18.765-7.352-28.125-11.086c1.297-2.771,2.105-5.949,3.997-8.225c3.698-4.451,8.095-8.311,12.029-12.576
		C1262.524,967.742,1266.272,963.259,1270.812,958.059z"/>
	<path fill-rule="evenodd" clip-rule="evenodd" fill="#6D6E71" stroke="#000000" stroke-miterlimit="10" d="M1352.875,834.133
		c10.562,6.57,19.999,12.439,28.705,17.854c-4.427,7.937-8.489,15.209-12.541,22.487c-1.807,3.245-3.306,6.717-5.513,9.66
		c-1.09,1.453-3.781,3.054-5.213,2.658c-5.099-1.413-10.281-3.102-14.856-5.7c-9.027-5.125-8.493-5.49-3.881-14.994
		c3.801-7.834,6.329-16.282,9.523-24.416C1349.955,839.503,1351.187,837.475,1352.875,834.133z"/>
	<path fill-rule="evenodd" clip-rule="evenodd" fill="#6D6E71" stroke="#000000" stroke-miterlimit="10" d="M1357.51,893.731
		c-7.468,11.763-13.712,22.314-20.757,32.3c-2.413,3.42-5.992,6.292-11.38,1.826c-3.571-2.961-9.205-3.613-14.035-4.826
		c-5.131-1.289-6.161-4.04-3.445-8.186c5.96-9.102,12.033-18.134,18.235-27.072c3.546-5.111,7.921-6.639,13.794-3.062
		C1345.103,887.865,1350.726,890.294,1357.51,893.731z"/>
	<path fill-rule="evenodd" clip-rule="evenodd" fill="#6D6E71" stroke="#000000" stroke-miterlimit="10" d="M1202.288,1137.48
		c9.93-9.197,18.222-16.98,26.689-24.568c0.92-0.824,3.175-1.182,4.259-0.644c10.466,5.192,20.814,10.621,32.503,16.657
		c-9.959,6.893-18.661,12.723-27.148,18.852c-6.584,4.755-12.186,6.659-19.066-0.425
		C1215.406,1143.115,1208.945,1141.154,1202.288,1137.48z"/>
	<path fill-rule="evenodd" clip-rule="evenodd" fill="#6D6E71" stroke="#000000" stroke-miterlimit="10" d="M1126.355,1038.892
		c8.567-8.101,15.285-14.59,22.211-20.851c1.004-0.908,3.288-1.422,4.492-0.929c11.057,4.532,22.007,9.328,34.042,14.5
		c-5.47,4.862-10.214,8.989-14.853,13.23c-4.726,4.322-9.348,8.759-14.929,14.005
		C1147.728,1052.666,1137.962,1046.372,1126.355,1038.892z"/>
	<path fill-rule="evenodd" clip-rule="evenodd" fill="#6D6E71" stroke="#000000" stroke-miterlimit="10" d="M1133.036,1125.254
		c3.283-1.153,7.328-1.461,9.708-3.612c8.149-7.361,15.315-4.113,22.994,0.613c8.09,4.98,16.496,9.449,26.314,15.021
		c-7.033,4.544-12.046,8.305-17.513,11.215c-14.792,7.873-17.037,7.327-29.002-4.449c-2.234-2.199-5.072-3.785-7.627-5.659
		c-4.63-3.394-8.163-7.167-4.613-13.382L1133.036,1125.254z"/>
	<path fill-rule="evenodd" clip-rule="evenodd" fill="#6D6E71" stroke="#000000" stroke-miterlimit="10" d="M1275.287,954.5
		c5.981-7.312,11.541-13.7,16.642-20.436c8.085-10.673,7.946-10.749,20.483-5.956c4.01,1.533,8.138,2.766,12.104,4.397
		c3.649,1.502,5.102,3.943,2.07,7.43c-6.631,7.627-13.151,15.36-20.048,22.739c-1.302,1.392-4.507,2.375-6.216,1.78
		C1292.325,961.664,1284.545,958.255,1275.287,954.5z"/>
	<path fill-rule="evenodd" clip-rule="evenodd" fill="#6D6E71" stroke="#000000" stroke-miterlimit="10" d="M1096.637,1060.449
		c-9.727,3.206-16.508,0.742-23.374-7.482c-2.583-3.095-6.445-5.121-11.064-8.662c8.58-7.334,17.413-14.886,27.219-23.267
		c7.135,4.854,15.338,9.746,22.576,15.793c2.098,1.752,1.427,6.817,2.033,10.366c-0.074-0.017-0.327-0.034-0.748-0.055
		C1106.189,1049.65,1099.018,1052.053,1096.637,1060.449z"/>
	<path fill-rule="evenodd" clip-rule="evenodd" fill="#6D6E71" stroke="#000000" stroke-miterlimit="10" d="M1155.062,1161.826
		c-7.835,4.488-15.433,9.44-23.601,13.135c-2.279,1.03-6.808-0.896-9.324-2.775c-7.875-5.883-15.283-12.393-23.806-19.43
		c8.228-5.541,15.851-10.915,23.779-15.79c1.391-0.854,4.638-0.345,6.056,0.771c8.797,6.922,17.332,14.181,25.898,21.395
		C1154.58,1159.565,1154.618,1160.567,1155.062,1161.826z"/>
	<path fill-rule="evenodd" clip-rule="evenodd" fill="#6D6E71" stroke="#000000" stroke-miterlimit="10" d="M1224.148,1158.495
		c-10.778,7.634-20.016,14.497-29.673,20.71c-1.678,1.08-5.759,0.261-7.63-1.146c-5.322-4-10.044-8.792-15.062-13.204
		c-3.487-3.065-4.525-6.186-0.13-9.174c5.986-4.073,11.825-8.54,18.301-11.643c3.299-1.581,8.59-1.995,11.686-0.41
		C1208.965,1147.382,1215.517,1152.646,1224.148,1158.495z"/>
	<path fill-rule="evenodd" clip-rule="evenodd" fill="#6D6E71" stroke="#000000" stroke-miterlimit="10" d="M1113.278,1047.143
		c0.421,0.021,0.674,0.038,0.748,0.055c4.832-2.872,8.998-3.778,14.103,0.654c5.91,5.133,13.01,8.897,20.929,14.141
		c-9.469,7.584-17.527,14.701-26.366,20.661c-2.256,1.521-7.531,0.353-10.458-1.292c-5.52-3.099-10.88-6.935-15.193-11.514
		c-1.749-1.856-0.583-6.458-0.74-9.809C1102.935,1060.875,1109.525,1055.867,1113.278,1047.143z"/>
	<path fill-rule="evenodd" clip-rule="evenodd" fill="#6D6E71" stroke="#000000" stroke-miterlimit="10" d="M1116.631,934.059
		c-5.924,6.406-10.969,11.804-15.947,17.264c-4.064,4.457-8.021,9.01-12.072,13.48c-2.874,3.17-5.657,3.655-8.673-0.058
		c-0.93-1.145-3.029-1.279-4.141-2.348c-3.277-3.145-7.517-6.016-9.2-9.931c-2.867-6.667,5.284-5.795,7.932-8.891
		c4.833-5.65,10.746-10.36,15.914-15.745c4.233-4.41,8.377-6.027,13.761-1.93C1107.585,928.474,1111.309,930.595,1116.631,934.059z"
		/>
	<path fill-rule="evenodd" clip-rule="evenodd" fill="#6D6E71" stroke="#000000" stroke-miterlimit="10" d="M1364.631,946.62
		c-8.508-3.938-15.573-6.862-22.222-10.535c-1.611-0.89-3.255-5.077-2.506-6.351c5.907-10.051,12.142-19.941,18.943-29.401
		c1.125-1.563,5.654-1.491,8.344-0.92c3.764,0.798,7.278,2.774,11.353,4.431C1373.829,918.339,1369.313,932.222,1364.631,946.62z"/>
	<path fill-rule="evenodd" clip-rule="evenodd" fill="#6D6E71" stroke="#000000" stroke-miterlimit="10" d="M1094.904,1151.194
		c-8.851-9.351-17.091-18.055-25.479-26.917c7.559-4.936,13.582-9.117,19.893-12.806c1.472-0.859,4.52-0.85,5.823,0.125
		c7.484,5.594,14.782,11.459,21.803,17.62c0.983,0.862,0.931,4.895-0.062,5.696
		C1110.259,1140.253,1103.25,1145.113,1094.904,1151.194z"/>
	<path fill-rule="evenodd" clip-rule="evenodd" fill="#6D6E71" stroke="#000000" stroke-miterlimit="10" d="M1124.661,1034.678
		c-9.627-5.259-16.953-9.061-24.039-13.268c-1.831-1.086-3.697-3.3-4.05-5.265c-0.228-1.269,2.118-3.192,3.584-4.521
		c1.545-1.401,3.625-2.229,5.109-3.678c10.913-10.633,10.93-10.744,24.492-3.164c4.817,2.693,9.351,5.895,14.015,8.863
		c-3.633,3.631-7.4,7.138-10.856,10.93C1129.869,1027.92,1127.17,1031.581,1124.661,1034.678z"/>
	<path fill-rule="evenodd" clip-rule="evenodd" fill="#6D6E71" stroke="#000000" stroke-miterlimit="10" d="M1403.022,809.54
		c-5.666,10.823-11.148,21.833-17.282,32.468c-0.989,1.714-5.566,3.174-7.303,2.327c-7.181-3.504-14.056-7.715-20.744-12.121
		c-3.633-2.393-2.621-8.977,1.437-11.781c0.866-0.598,1.916-1.032,2.945-1.275C1375.535,815.967,1389.006,812.824,1403.022,809.54z"
		/>
	<path fill-rule="evenodd" clip-rule="evenodd" fill="#6D6E71" stroke="#000000" stroke-miterlimit="10" d="M1133.296,1125
		c-5.238,2.637-9.302,1.496-13.706-2.59c-6.197-5.749-13.277-10.547-20.926-16.485c5.689-4.513,10.426-8.635,15.601-12.104
		c1.192-0.799,4.185,0.133,5.834,1.125c9.42,5.662,18.685,11.584,29.012,18.051c-5.813,4.433-10.939,8.342-16.071,12.255
		C1133.036,1125.254,1133.296,1125,1133.296,1125z"/>
	<path fill-rule="evenodd" clip-rule="evenodd" fill="#6D6E71" stroke="#000000" stroke-miterlimit="10" d="M1110.786,994.391
		c-5.359,4.996-9.893,8.444-13.431,12.716c-4.441,5.363-9.11,4.871-14.267,1.971c-5.116-2.878-10.07-6.042-15.133-9.017
		c-4.481-2.634-5.01-4.981-0.256-8.188c4.613-3.113,9.112-6.57,12.995-10.53c3.302-3.367,5.964-3.806,9.72-1.088
		C1097.062,985.062,1103.887,989.624,1110.786,994.391z"/>
	<path fill-rule="evenodd" clip-rule="evenodd" fill="#6D6E71" stroke="#000000" stroke-miterlimit="10" d="M1049.311,994.854
		c12.842,8.286,23.58,15.214,34.297,22.129c-5.542,10.093-22.791,20.196-30.72,17.766
		C1051.76,1022.168,1050.616,1009.417,1049.311,994.854z"/>
	<path fill-rule="evenodd" clip-rule="evenodd" fill="#6D6E71" stroke="#000000" stroke-miterlimit="10" d="M1198.243,1184.844
		c1.473-1.378,2.819-2.936,4.444-4.104c6.045-4.352,12.104-8.694,18.312-12.807c4.629-3.067,9.419-6.169,15.245-2.485
		c7.1,4.489,14.222,8.943,21.334,13.412c-0.259,1.113-0.518,2.226-0.776,3.339c-19.334,1.614-38.669,3.229-58.003,4.844
		C1198.613,1186.309,1198.428,1185.576,1198.243,1184.844z"/>
	<path fill-rule="evenodd" clip-rule="evenodd" fill="#6D6E71" stroke="#000000" stroke-miterlimit="10" d="M1048.882,990.118
		c0-7.985-0.193-16.781,0.074-25.562c0.154-5.058,8.051-9.841,11.865-6.864c6.917,5.397,13.092,11.745,20.373,18.428
		C1069.738,981.924,1064.672,994.719,1048.882,990.118z"/>
	<path fill-rule="evenodd" clip-rule="evenodd" fill="#6D6E71" stroke="#000000" stroke-miterlimit="10" d="M1353.079,992.387
		c-4.783,15.696-9.566,31.392-15.053,49.399c-7.229-4.638-12.821-7.896-17.898-11.821c-0.798-0.616,0.055-4.781,1.311-6.4
		c6.63-8.551,13.569-16.867,20.545-25.143c2.37-2.812,5.164-5.266,7.764-7.883C1350.858,991.154,1351.969,991.771,1353.079,992.387z
		"/>
	<path fill-rule="evenodd" clip-rule="evenodd" fill="#6D6E71" stroke="#000000" stroke-miterlimit="10" d="M1058.156,835.182
		c-8.147,7.176-12.899,16.912-23.646,17.852c-2.771-13.193-5.444-25.921-8.118-38.647c0.54-0.654,1.079-1.31,1.619-1.965
		C1037.722,819.753,1047.433,827.085,1058.156,835.182z"/>
	<path fill-rule="evenodd" clip-rule="evenodd" fill="#6D6E71" stroke="#000000" stroke-miterlimit="10" d="M1260.241,834.312
		c6.3-4.932,30.468-8.737,42.386-6.776c-3.6,7.318-6.702,14.826-11.013,21.561c-1.112,1.738-6.909,2.5-9.027,1.208
		C1274.824,845.57,1267.706,839.78,1260.241,834.312z"/>
	<path fill-rule="evenodd" clip-rule="evenodd" fill="#6D6E71" stroke="#000000" stroke-miterlimit="10" d="M1182.244,1186.113
		c-16.965-1.321-33.931-2.643-50.896-3.963c0.021-0.633,0.041-1.267,0.061-1.899c8.622-4.69,17.208-9.45,25.906-13.992
		c1.227-0.641,3.484-0.886,4.458-0.188c7.442,5.332,14.685,10.944,21.989,16.469
		C1183.256,1183.73,1182.749,1184.922,1182.244,1186.113z"/>
	<path fill-rule="evenodd" clip-rule="evenodd" fill="#6D6E71" stroke="#000000" stroke-miterlimit="10" d="M1112.163,1089.891
		c-5.364,3.668-9.872,7.295-14.916,9.867c-1.508,0.77-4.916-0.896-6.767-2.332c-5.957-4.617-11.592-9.647-17.485-14.63
		c12.624-11.541,16.797-11.431,31.14-0.155C1106.442,1084.455,1108.51,1086.575,1112.163,1089.891z"/>
	<path fill-rule="evenodd" clip-rule="evenodd" fill="#6D6E71" stroke="#000000" stroke-miterlimit="10" d="M1081.953,1169.095
		c0.439-3.619,0.878-7.238,1.264-10.42c-7.031,1.345-7.031,1.345-11.064-20.898c14.984,13.691,29.28,26.755,44.365,40.537
		c-12.167-3.31-23.495-6.393-34.817-9.47C1081.707,1168.849,1081.953,1169.095,1081.953,1169.095z"/>
	<path fill-rule="evenodd" clip-rule="evenodd" fill="#6D6E71" stroke="#000000" stroke-miterlimit="10" d="M1062.69,833.086
		c-12.566-10.82-24.279-20.905-36.262-31.222c15.733,5.176,30.841,10.146,47.812,15.73
		C1070.235,822.967,1066.459,828.032,1062.69,833.086z"/>
	<path fill-rule="evenodd" clip-rule="evenodd" fill="#6D6E71" stroke="#000000" stroke-miterlimit="10" d="M1089.125,1106.343
		c-5.361,3.971-9.229,7.274-13.514,9.896c-5.368,3.283-9.34,1.133-9.66-5.419c-0.401-8.204-0.097-16.444-0.097-26.078
		C1073.615,1091.946,1080.993,1098.795,1089.125,1106.343z"/>
	<path fill-rule="evenodd" clip-rule="evenodd" fill="#6D6E71" stroke="#000000" stroke-miterlimit="10" d="M1389.914,855.704
		c-1.155,5.373-2.07,10.811-3.526,16.1c-1.839,6.677-4.658,13.123-6.04,19.875c-1.093,5.347-4.376,6.609-7.914,4.526
		c-2.703-1.593-6.252-6.869-5.432-8.502c5.766-11.492,12.569-22.464,19.04-33.603
		C1387.334,854.634,1388.624,855.169,1389.914,855.704z"/>
	<path fill-rule="evenodd" clip-rule="evenodd" fill="#6D6E71" stroke="#000000" stroke-miterlimit="10" d="M1082.301,1068.051
		c-3.277,2.706-5.535,4.977-8.167,6.66c-5.284,3.383-10.551,1.036-12.034-4.955c-1.647-6.655-3.472-13.268-5.823-22.188
		C1065.983,1055.207,1073.785,1061.349,1082.301,1068.051z"/>
	<path fill-rule="evenodd" clip-rule="evenodd" fill="#6D6E71" stroke="#000000" stroke-miterlimit="10" d="M1038.214,879.961
		c6.106,4.74,12.212,9.48,18.358,14.251c-3.619,4.393-6.614,8.359-10.104,11.829c-0.415,0.413-4.774-1.538-5.179-2.987
		c-2.001-7.15-3.285-14.5-4.822-21.78C1037.048,880.837,1037.631,880.399,1038.214,879.961z"/>
	<path fill-rule="evenodd" clip-rule="evenodd" fill="#6D6E71" stroke="#000000" stroke-miterlimit="10" d="M1307.352,1154.11
		c-0.989,3.264-1.253,7.036-3.116,9.687c-3.955,5.626-22.771,13.77-30.81,14.058c10.561-8.318,20.97-16.517,31.379-24.716
		C1305.654,1153.463,1306.502,1153.787,1307.352,1154.11z"/>
	<path fill-rule="evenodd" clip-rule="evenodd" fill="#6D6E71" stroke="#000000" stroke-miterlimit="10" d="M1113.278,1047.143
		c-3.753,8.725-10.344,13.732-16.977,12.896c-0.002-0.002,0.335,0.413,0.335,0.411
		C1099.018,1052.053,1106.189,1049.65,1113.278,1047.143z"/>
	<path fill-rule="evenodd" clip-rule="evenodd" fill="#6D6E71" stroke="#000000" stroke-miterlimit="10" d="M1132.201,871.304
		c5.483-5.618,11.001-11.202,16.432-16.871c2.092-2.182,3.986-4.554,5.97-6.839c0.681,0.533,1.362,1.066,2.042,1.599
		c-5.298,7.32-10.304,14.889-16.133,21.759c-1.221,1.438-5.475,0.303-8.364,0.337
		C1132.115,871.271,1132.201,871.304,1132.201,871.304z"/>
	<g>
		<path fill="none" d="M1167.478,994.874c0-123.604,0-247.206,0-370.904c119.53,0,239.091,0,358.811,0
			c0,123.571,0,247.237,0,370.904C1406.762,994.874,1287.135,994.874,1167.478,994.874z M1254.99,948.976
			c0.758,0.256,1.337,0.666,1.63,0.516c2.46-1.254,4.816-2.717,7.3-3.918c16.222-7.847,28.023-20.682,35.896-36.186
			c8.062-15.873,13.479-33.08,20.262-49.618c3.082-7.515,5.994-15.232,10.188-22.124c5.457-8.965,12.113-17.199,18.892-26.637
			c4.384,10.729,8.017,20.847,12.586,30.522c7.431,15.733,8.77,32.435,7.8,49.242c-1.146,19.851-10.023,37.038-21.721,52.728
			c-4.502,6.04-9.819,11.473-14.764,17.182c0.136,0.473,0.271,0.945,0.408,1.418c1.615-0.29,3.326-0.334,4.825-0.921
			c2.926-1.146,5.611-3.188,8.613-3.812c10.46-2.179,19.636-7.054,28.14-13.155c3.948-2.833,6.914-6.995,10.609-10.23
			c7.139-6.254,12.465-13.479,15.596-22.644c4.537-13.282,5.102-26.715,2.945-40.313c-1.449-9.137-3.75-18.139-5.535-26.566
			c10.377,5.267,21.336,10.498,31.949,16.356c5.191,2.864,10.349,6.302,14.449,10.521c8.1,8.335,15.743,17.161,23.02,26.229
			c5.682,7.08,10.922,14.594,15.594,22.375c2.948,4.91,4.4,10.705,6.729,16.013c0.504,1.151,1.883,1.919,2.857,2.864
			c0.562-1.155,1.425-2.262,1.621-3.475c0.369-2.281,0.104-4.674,0.539-6.936c2.91-15.113,0.321-29.33-6.291-43.094
			c-8.113-16.887-18.557-31.845-33.979-42.881c-6.737-4.821-13.369-9.83-20.398-14.188c-8.701-5.395-18.168-9.621-26.551-15.438
			c-7.379-5.119-10.863-12.782-11.049-22.298c-0.312-16.051,2.911-31.394,7.741-46.458c3.022-9.424,5.083-19.16,1.778-28.364
			c-3.646-10.154-1.137-18.436,3.768-26.877c3.576-6.154,7.459-12.159,10.588-18.534c1.989-4.054,0.17-7.187-4.154-9.126
			c-4.19-1.878-6.07,0.224-8.016,3.358c-4.196,6.765-8.406,13.532-12.922,20.084c-3.832,5.562-8.212,10.203-15.969,10.381
			c-13.265,0.306-24.973,4.938-32.449,16.336c-5.617,8.563-10.372,17.793-14.612,27.134c-5.438,11.979-13.563,21.977-23.581,29.765
			c-11.901,9.251-25.388,16.071-39.87,21.247c-16.112,5.757-30.215,3.656-43.767-5.923c-12.03-8.504-21.717-19.334-30.611-30.946
			c-0.951-1.242-1.99-2.418-2.927-3.55c-5.198,3.255-4.327,6.823-2.013,10.911c8.172,14.44,18.666,26.973,30.609,38.415
			c20.923,20.047,45.094,25.158,72.215,15.506c8.445-3.006,17.003-6.355,22.878-13.872c-5.096,7.625-10.206,15.067-15.311,22.514
			c-1.034,1.509-1.848,3.228-3.108,4.511c-6.734,6.861-10.318,15.463-13.05,24.359c-3.113,10.138-5.21,20.588-8.369,30.71
			c-2.327,7.458-5.06,14.675-4.835,22.706c0.081,2.889-0.991,5.923-2.03,8.707c-2.554,6.842-5.399,13.574-8.116,20.354
			C1259.016,938.853,1257.031,943.856,1254.99,948.976z"/>
		<path fill-rule="evenodd" clip-rule="evenodd" d="M1254.99,948.976c2.041-5.119,4.026-10.123,6.028-15.121
			c2.717-6.779,5.562-13.512,8.116-20.354c1.039-2.784,2.111-5.818,2.03-8.707c-0.224-8.031,2.509-15.248,4.835-22.706
			c3.158-10.122,5.256-20.572,8.369-30.71c2.732-8.896,6.316-17.498,13.05-24.359c1.26-1.283,2.074-3.002,3.108-4.511
			c5.105-7.446,10.215-14.889,15.311-22.514c-5.875,7.517-14.433,10.866-22.878,13.872c-27.121,9.652-51.292,4.541-72.215-15.506
			c-11.943-11.442-22.437-23.975-30.609-38.415c-2.314-4.088-3.185-7.655,2.013-10.911c0.938,1.132,1.976,2.308,2.927,3.55
			c8.894,11.612,18.581,22.442,30.611,30.946c13.552,9.579,27.655,11.68,43.767,5.923c14.482-5.176,27.969-11.996,39.87-21.247
			c10.018-7.788,18.144-17.785,23.581-29.765c4.24-9.341,8.995-18.57,14.612-27.134c7.476-11.397,19.184-16.03,32.449-16.336
			c7.757-0.178,12.137-4.819,15.969-10.381c4.516-6.552,8.726-13.32,12.922-20.084c1.945-3.134,3.825-5.236,8.016-3.358
			c4.324,1.939,6.144,5.072,4.154,9.126c-3.129,6.375-7.012,12.38-10.588,18.534c-4.904,8.441-7.414,16.723-3.768,26.877
			c3.305,9.205,1.244,18.94-1.778,28.364c-4.83,15.064-8.054,30.408-7.741,46.458c0.186,9.516,3.67,17.179,11.049,22.298
			c8.383,5.816,17.85,10.043,26.551,15.438c7.029,4.358,13.661,9.367,20.398,14.188c15.422,11.036,25.865,25.994,33.979,42.881
			c6.612,13.764,9.201,27.98,6.291,43.094c-0.436,2.262-0.17,4.654-0.539,6.936c-0.196,1.213-1.059,2.319-1.621,3.475
			c-0.975-0.945-2.354-1.713-2.857-2.864c-2.328-5.308-3.78-11.103-6.729-16.013c-4.672-7.781-9.912-15.295-15.594-22.375
			c-7.276-9.068-14.92-17.895-23.02-26.229c-4.101-4.22-9.258-7.657-14.449-10.521c-10.613-5.858-21.572-11.09-31.949-16.356
			c1.785,8.428,4.086,17.43,5.535,26.566c2.156,13.599,1.592,27.031-2.945,40.313c-3.131,9.165-8.457,16.39-15.596,22.644
			c-3.695,3.235-6.661,7.397-10.609,10.23c-8.504,6.102-17.68,10.977-28.14,13.155c-3.002,0.625-5.687,2.667-8.613,3.812
			c-1.499,0.587-3.21,0.631-4.825,0.921c-0.136-0.473-0.272-0.945-0.408-1.418c4.945-5.709,10.262-11.142,14.764-17.182
			c11.697-15.689,20.575-32.877,21.721-52.728c0.97-16.808-0.369-33.509-7.8-49.242c-4.569-9.676-8.202-19.794-12.586-30.522
			c-6.778,9.438-13.435,17.672-18.892,26.637c-4.194,6.892-7.106,14.609-10.188,22.124c-6.783,16.538-12.201,33.745-20.262,49.618
			c-7.873,15.504-19.674,28.339-35.896,36.186c-2.484,1.201-4.84,2.664-7.3,3.918
			C1256.327,949.642,1255.749,949.231,1254.99,948.976z M1490.681,924.882c2.251-12.178,2.441-13.992-2.901-29.779
			c-8.864-26.192-26.683-44.374-48.808-59.094c-10.605-7.057-22.329-12.436-32.912-19.523c-8.585-5.749-12.339-14.602-12.849-25.195
			c-0.873-18.184,5.039-34.961,9.473-52.102c3.029-11.715,3.39-23.11-6.361-32.315c1.97-2.802,4.137-5.267,5.605-8.094
			c3.729-7.18,7.236-14.479,10.59-21.842c0.542-1.19,0.393-3.663-0.414-4.295c-1.598-1.251-3.645-2.01-5.168,1.009
			c-2.542,5.038-5.52,9.866-8.463,14.69c-4.509,7.388-11.096,10.5-19.823,10.864c-6.144,0.256-12.806,1.268-18.179,4.013
			c-10.883,5.562-16.335,16.278-20.677,27.082c-6.624,16.483-16.956,30.156-30.463,41.272c-6.734,5.542-14.376,10.425-22.351,13.904
			c-10.591,4.622-21.669,9.217-32.969,10.858c-15.629,2.271-28.705-5.483-40.042-15.91c-4.617-4.247-9.23-8.496-13.846-12.744
			c8.083,10.499,16.761,20.478,26.091,29.804c6.974,6.972,15.885,11.073,25.184,14.373c11.456,4.065,22.836,2.122,33.938-0.656
			c7.742-1.938,15.771-4.661,22.28-9.083c7.412-5.035,13.271-12.352,19.815-18.667c1.129-1.089,2.309-2.126,3.798-3.491
			c1.863,5.523-0.768,9.234-3.402,12.734c-6.978,9.27-14.233,18.331-21.216,27.598c-8.009,10.629-15.487,21.461-19.16,34.643
			c-4.579,16.434-10.385,32.536-11.587,49.751c-0.137,1.965-0.567,3.983-1.27,5.821c-3.203,8.385-6.588,16.699-9.813,25.074
			c-0.558,1.449-0.658,3.074-0.969,4.617c0.481,0.292,0.962,0.584,1.443,0.876c6.045-4.849,12.38-9.381,18.067-14.618
			c8.699-8.01,14.292-18.271,18.703-29.076c7.002-17.153,13.899-34.36,20.326-51.734c4.359-11.785,11.986-21.298,19.579-30.912
			c2.464-3.12,5.268-5.971,7.917-8.945c0.69,0.053,1.381,0.104,2.072,0.156c4.807,12.104,9.658,24.191,14.401,36.321
			c1.868,4.776,4.279,9.517,5.094,14.495c3.325,20.314,5.49,40.739-3.653,60.264c-3.852,8.225-8.288,16.207-12.945,24.008
			c-2.533,4.242-6.087,7.873-9.925,12.721c2.115-0.244,2.768-0.223,3.359-0.402c14.087-4.263,26.076-11.66,36.334-22.412
			c14.575-15.274,17.81-33.682,15.97-53.523c-1.32-14.241-3.983-28.276-10.498-41.299c-0.619-1.237,0.293-3.24,0.495-4.887
			c1.324,0.743,2.97,1.201,3.921,2.275c6.863,7.74,15.444,13.059,24.606,17.473c10.472,5.045,21.434,9.552,29.638,17.927
			c9.052,9.241,17.243,19.353,25.474,29.36c4.581,5.57,8.657,11.584,12.601,17.635
			C1488.547,918.595,1489.412,921.87,1490.681,924.882z M1415.075,671.839c1.009-0.328,2.019-0.656,3.026-0.984
			c-0.542-2.166-1.084-4.331-1.627-6.496c-1.302,0.649-3.786,1.562-3.71,1.905C1413.194,668.199,1414.24,669.996,1415.075,671.839z"
			/>
		<path fill-rule="evenodd" clip-rule="evenodd" fill="#F7CF0E" d="M1490.681,924.882c-1.269-3.012-2.134-6.287-3.89-8.982
			c-3.943-6.051-8.02-12.064-12.601-17.635c-8.23-10.008-16.422-20.119-25.474-29.36c-8.204-8.375-19.166-12.882-29.638-17.927
			c-9.162-4.414-17.743-9.732-24.606-17.473c-0.951-1.074-2.597-1.532-3.921-2.275c-0.202,1.646-1.114,3.649-0.495,4.887
			c6.515,13.022,9.178,27.058,10.498,41.299c1.84,19.842-1.395,38.249-15.97,53.523c-10.259,10.752-22.247,18.149-36.334,22.412
			c-0.592,0.18-1.244,0.158-3.359,0.402c3.838-4.848,7.392-8.479,9.925-12.721c4.657-7.801,9.094-15.783,12.945-24.008
			c9.144-19.524,6.979-39.949,3.653-60.264c-0.814-4.979-3.226-9.719-5.094-14.495c-4.743-12.13-9.595-24.217-14.401-36.321
			c-0.691-0.052-1.382-0.104-2.072-0.156c-2.649,2.975-5.453,5.825-7.917,8.945c-7.593,9.614-15.219,19.127-19.579,30.912
			c-6.427,17.374-13.324,34.581-20.326,51.734c-4.411,10.805-10.004,21.066-18.703,29.076c-5.687,5.237-12.022,9.77-18.067,14.618
			c-0.481-0.292-0.962-0.584-1.443-0.876c0.312-1.543,0.412-3.168,0.969-4.617c3.225-8.375,6.61-16.689,9.813-25.074
			c0.702-1.838,1.132-3.856,1.27-5.821c1.202-17.215,7.008-33.317,11.587-49.751c3.673-13.182,11.15-24.014,19.16-34.643
			c6.983-9.267,14.238-18.328,21.216-27.598c2.634-3.5,5.265-7.211,3.402-12.734c-1.489,1.365-2.669,2.402-3.798,3.491
			c-6.544,6.315-12.404,13.632-19.815,18.667c-6.509,4.422-14.538,7.145-22.28,9.083c-11.102,2.778-22.482,4.722-33.938,0.656
			c-9.298-3.3-18.209-7.401-25.184-14.373c-9.33-9.326-18.008-19.305-26.091-29.804c4.615,4.248,9.229,8.497,13.846,12.744
			c11.336,10.426,24.413,18.18,40.042,15.91c11.299-1.642,22.378-6.236,32.969-10.858c7.974-3.479,15.617-8.362,22.351-13.904
			c13.507-11.116,23.839-24.789,30.463-41.272c4.342-10.804,9.794-21.52,20.677-27.082c5.373-2.745,12.035-3.757,18.179-4.013
			c8.728-0.364,15.314-3.476,19.823-10.864c2.943-4.824,5.921-9.652,8.463-14.69c1.523-3.019,3.57-2.26,5.168-1.009
			c0.807,0.632,0.956,3.105,0.414,4.295c-3.354,7.363-6.861,14.662-10.59,21.842c-1.469,2.828-3.636,5.292-5.605,8.094
			c9.751,9.205,9.391,20.6,6.361,32.315c-4.434,17.141-10.346,33.917-9.473,52.102c0.51,10.594,4.264,19.446,12.849,25.195
			c10.583,7.088,22.307,12.467,32.912,19.523c22.125,14.72,39.943,32.901,48.808,59.094
			C1493.122,910.89,1492.932,912.704,1490.681,924.882z M1343.162,791.087c-0.332-0.318-0.665-0.637-0.997-0.955
			c-7.267,3.607-11.312,10.461-15.406,16.842c-5.539,8.631-9.851,18.039-14.979,26.947c-10.768,18.709-18.689,38.49-23.451,59.562
			c-1.119,4.952-2.932,9.746-4.358,14.632c-0.097,0.331,0.372,0.826,0.577,1.245c0.493,0.18,0.986,0.36,1.479,0.54
			c1.5-4.088,3.705-8.064,4.373-12.284c2.47-15.615,8.7-29.934,14.83-44.252c3.508-8.193,8.15-15.898,12.213-23.857
			c5.437-10.65,10.273-21.655,18.627-30.529C1338.494,796.403,1340.802,793.72,1343.162,791.087z M1372.328,925.456
			c0.455,0.266,0.912,0.531,1.368,0.797c1.53-2.444,2.998-4.93,4.603-7.324c7.037-10.504,12.533-21.523,10.408-34.695
			c-1.527-9.466-3.225-18.922-5.338-28.271c-3.443-15.238-7.287-30.385-10.963-45.569c-0.523,0.066-1.046,0.132-1.568,0.198
			c0.217,2.516,0.097,5.117,0.705,7.533c4.328,17.174,9.537,34.166,12.93,51.516c1.769,9.037,1.92,18.998,0.047,27.967
			c-1.818,8.715-7.158,16.693-10.947,24.997C1373.141,923.547,1372.742,924.505,1372.328,925.456z M1465.188,871.865
			c0.214-0.015,0.427-0.028,0.641-0.044c-0.971-1.578-1.626-3.52-2.962-4.679c-9.371-8.142-18.553-16.557-28.437-24.036
			c-10.947-8.285-22.665-15.544-33.858-23.515c-3.486-2.481-6.359-5.825-9.513-8.774c-0.23,1.809,0.107,3.336,1.054,4.184
			c5.063,4.527,9.986,9.296,15.502,13.216c11.082,7.876,22.82,14.85,33.707,22.973
			C1449.735,857.468,1457.266,864.93,1465.188,871.865z M1235.971,800.887c2.839,0,4.959-0.054,7.077,0.009
			c8.24,0.246,16.629,1.647,24.688,0.568c18.161-2.432,33.155-12.301,47.463-23.047c2.231-1.676,3.395-4.773,5.052-7.212
			c-24.899,21.787-51.277,36.403-86.591,25.774C1235.167,799.528,1235.808,800.61,1235.971,800.887z M1385.726,749.086
			c-13.481,9.453-18.892-0.844-24.923-9.672c-2.588,7.182,2.275,14.115,10.635,16.657
			C1378.256,758.144,1384.217,755.802,1385.726,749.086z M1397.945,730.419c-1.333-1.367-2.82-4.207-4.88-4.712
			c-3.552-0.873-7.829,3.223-7.812,6.412c0.017,3.356,3.63,6.914,7.237,6.789C1397.189,738.744,1396.75,734.78,1397.945,730.419z
			 M1357.215,722.295c1.114,0.868,2.989,3.352,5.318,3.897c3.314,0.776,7.834-3.358,7.713-6.042c-0.16-3.501-3.42-6.643-6.773-6.529
			C1359.52,713.755,1357.099,716.352,1357.215,722.295z"/>
		<path fill-rule="evenodd" clip-rule="evenodd" fill="#431116" d="M1415.075,671.839c-0.835-1.844-1.881-3.641-2.311-5.575
			c-0.076-0.343,2.408-1.256,3.71-1.905c0.543,2.166,1.085,4.331,1.627,6.496C1417.094,671.184,1416.084,671.512,1415.075,671.839z"
			/>
		<path fill-rule="evenodd" clip-rule="evenodd" d="M1343.162,791.087c-2.36,2.633-4.668,5.316-7.091,7.891
			c-8.354,8.874-13.19,19.879-18.627,30.529c-4.063,7.959-8.705,15.664-12.213,23.857c-6.13,14.318-12.36,28.637-14.83,44.252
			c-0.667,4.22-2.873,8.196-4.373,12.284c-0.493-0.18-0.986-0.36-1.479-0.54c-0.206-0.419-0.674-0.914-0.577-1.245
			c1.427-4.886,3.24-9.68,4.358-14.632c4.762-21.072,12.684-40.854,23.451-59.562c5.127-8.908,9.44-18.316,14.979-26.947
			c4.094-6.381,8.139-13.234,15.406-16.842C1342.498,790.45,1342.83,790.769,1343.162,791.087z"/>
		<path fill-rule="evenodd" clip-rule="evenodd" d="M1372.328,925.456c0.414-0.951,0.812-1.909,1.244-2.853
			c3.789-8.304,9.129-16.282,10.947-24.997c1.873-8.969,1.722-18.93-0.047-27.967c-3.393-17.35-8.602-34.342-12.93-51.516
			c-0.608-2.416-0.488-5.018-0.705-7.533c0.522-0.066,1.045-0.132,1.568-0.198c3.676,15.185,7.52,30.331,10.963,45.569
			c2.113,9.35,3.811,18.806,5.338,28.271c2.125,13.172-3.371,24.191-10.408,34.695c-1.604,2.395-3.072,4.88-4.603,7.324
			C1373.24,925.987,1372.783,925.722,1372.328,925.456z"/>
		<path fill-rule="evenodd" clip-rule="evenodd" d="M1465.188,871.865c-7.923-6.936-15.453-14.397-23.866-20.676
			c-10.887-8.123-22.625-15.097-33.707-22.973c-5.516-3.92-10.438-8.688-15.502-13.216c-0.946-0.848-1.284-2.375-1.054-4.184
			c3.153,2.949,6.026,6.293,9.513,8.774c11.193,7.971,22.911,15.229,33.858,23.515c9.884,7.479,19.065,15.895,28.437,24.036
			c1.336,1.159,1.991,3.101,2.962,4.679C1465.615,871.837,1465.402,871.851,1465.188,871.865z"/>
		<path fill-rule="evenodd" clip-rule="evenodd" d="M1235.971,800.887c-0.164-0.276-0.804-1.358-2.312-3.908
			c35.314,10.629,61.692-3.987,86.591-25.774c-1.657,2.439-2.821,5.537-5.052,7.212c-14.309,10.746-29.302,20.615-47.463,23.047
			c-8.059,1.079-16.448-0.322-24.688-0.568C1240.931,800.833,1238.811,800.887,1235.971,800.887z"/>
		<path fill-rule="evenodd" clip-rule="evenodd" d="M1385.726,749.086c-1.509,6.716-7.47,9.058-14.288,6.985
			c-8.359-2.542-13.223-9.475-10.635-16.657C1366.834,748.242,1372.244,758.539,1385.726,749.086z"/>
		<path fill-rule="evenodd" clip-rule="evenodd" d="M1397.945,730.419c-1.195,4.361-0.756,8.325-5.455,8.488
			c-3.607,0.125-7.221-3.433-7.237-6.789c-0.017-3.189,4.261-7.285,7.812-6.412C1395.125,726.212,1396.612,729.052,1397.945,730.419
			z"/>
		<path fill-rule="evenodd" clip-rule="evenodd" d="M1357.215,722.295c-0.116-5.943,2.305-8.54,6.258-8.675
			c3.354-0.114,6.613,3.028,6.773,6.529c0.121,2.684-4.398,6.818-7.713,6.042C1360.204,725.646,1358.329,723.163,1357.215,722.295z"
			/>
	</g>
</g>
</svg>
